<svg width="150" height="182" viewBox="0 0 150 182" fill="none" xmlns="http://www.w3.org/2000/svg">
  <path d="M108.664 104.817L108.03 105.67L108.625 106.551C110.681 109.591 112.731 112.623 114.777 115.648C124.855 130.548 134.821 145.284 144.763 160.036L144.763 160.037C147.467 164.04 148.22 166.588 147.667 168.717C147.092 170.931 144.986 173.228 140.407 176.342C136.336 179.107 133.583 180.056 131.384 179.729C129.235 179.41 127.124 177.789 124.554 174.016L124.553 174.014C113.476 157.799 102.424 141.471 91.5469 125.086C90.4705 123.46 89.3181 122.071 87.6948 121.388C86.0273 120.687 84.1834 120.855 82.0247 121.542C48.3204 132.202 13.3219 113.239 4.18744 79.7146C-5.08801 45.582 15.3261 11.6518 50.0416 3.60505C73.8013 -1.89697 99.8018 8.26088 113.584 28.3851L113.584 28.3853C128.047 49.4935 128.306 76.6786 114.179 97.4215C113.139 98.9066 112.061 100.324 110.882 101.875C110.183 102.795 109.448 103.761 108.664 104.817ZM112.424 63.6563L112.424 63.6523C112.519 36.5902 90.6741 14.2654 63.8042 14.059C54.0247 13.9112 44.4215 16.6675 36.2129 21.9786C28.0027 27.2907 21.5579 34.9191 17.6968 43.8957C13.8357 52.8724 12.7325 62.7924 14.5274 72.3964C16.3224 82.0004 20.9344 90.855 27.7777 97.8365C34.621 104.818 43.3871 109.611 52.963 111.609C62.539 113.606 72.4934 112.718 81.5628 109.056C90.6322 105.394 98.4078 99.1235 103.903 91.0404C109.397 82.9573 112.363 73.426 112.424 63.6563ZM141.566 164.463L141.565 164.436L141.564 164.409C141.425 162.204 140.546 160.348 139.015 159.017C137.507 157.706 135.487 157.006 133.212 156.844L133.129 156.838L133.046 156.842C130.806 156.932 128.688 157.883 127.134 159.498C125.581 161.113 124.713 163.266 124.713 165.506C124.713 167.746 125.581 169.898 127.134 171.513C128.682 173.122 130.791 174.073 133.022 174.169C138.047 174.513 141.709 169.81 141.566 164.463Z" fill="url(#paint0_linear_10_118)" stroke="#0D336B" stroke-width="3"/>
  <path d="M88.5793 92.2381H77.4071V33.1561H88.5793V92.2381Z" fill="#0D336B"/>
  <path d="M67.3603 45.5286V92.1455H55.5037V45.5286H67.3603Z" fill="#0D336B"/>
  <path d="M34.1222 60.7393H45.3756V92.1455H34.1222V60.7393Z" fill="#0D336B"/>
  <defs>
  <linearGradient id="paint0_linear_10_118" x1="74.8942" y1="0.622742" x2="74.8942" y2="181.291" gradientUnits="userSpaceOnUse">
  <stop stop-color="#ECCB46"/>
  <stop offset="1" stop-color="#FFF6D3"/>
  </linearGradient>
  </defs>
  </svg>  
