<svg width="234" height="95" viewBox="0 0 234 95" fill="none" xmlns="http://www.w3.org/2000/svg">
  <g clip-path="url(#clip0_1_3)">
  <g filter="url(#filter0_d_1_3)">
  <path d="M36.781 25C36.781 30.0278 36.781 35.0556 36.781 40.0834C36.781 41.1945 37.1161 41.5667 38.2051 41.4833C39.2941 41.4 40.2491 41.4833 41.2711 41.4833C42.0865 41.45 42.4272 41.7167 42.4216 42.5945C42.3881 47.95 42.3881 53.3019 42.4216 58.65C42.4216 59.4834 42.1591 59.7611 41.3046 59.7611C31.9223 59.7611 22.5381 59.7611 13.152 59.7611C12.292 59.7611 11.9066 59.5278 11.9122 58.5889C11.9457 48.7611 11.7614 38.9334 12.0016 29.1111C12.2808 17.9333 21.6632 8.95002 33.0113 8.58335C36.7978 8.46113 36.7978 8.46113 36.7978 12.1445L36.781 25Z" fill="#0D336B"/>
  </g>
  <g filter="url(#filter1_d_1_3)">
  <path d="M69.1781 80.3222C66.7934 85.5445 62.7501 88.9945 57.4837 91.1556C54.3171 92.45 51.0054 92.6556 47.6434 92.6222C46.761 92.6222 46.5264 92.2445 46.5655 91.45C46.6046 89.3778 46.5655 87.3 46.5655 85.2222C46.5655 71.2056 46.5655 57.1833 46.5376 43.1667C46.5376 41.8389 46.8783 41.4611 48.213 41.5C55.4061 41.5667 62.603 41.5667 69.8036 41.5C71.088 41.5 71.4455 41.8611 71.4287 43.1278C71.3338 48.6111 71.3449 54.1 71.3114 59.5833C70.7976 60.3111 70.0102 60.1889 69.2842 60.1945C64.2244 60.1945 59.1702 60.1945 54.1105 60.1945C53.6246 60.1945 53.0941 60.0445 52.5747 60.4389C53.7102 62.0069 54.9569 63.4922 56.3053 64.8833C60.2704 69.3889 64.1239 73.9611 68.1784 78.4056C68.7012 78.9274 69.0502 79.5965 69.1781 80.3222Z" fill="#0D336B"/>
  </g>
  <g filter="url(#filter2_d_1_3)">
  <path d="M110.399 8.46666C110.751 8.87222 110.605 9.35 110.605 9.79444C110.605 19.2056 110.605 28.6111 110.639 38.0222C110.639 39.3667 110.259 39.8389 108.919 39.6889C107.854 39.5972 106.783 39.5972 105.719 39.6889C104.574 39.7778 104.306 39.3 104.323 38.25C104.378 34.9778 104.323 31.7 104.323 28.4222C104.344 27.9194 104.229 27.4202 103.987 26.9778C101.195 30.9944 98.4028 35.0056 95.4764 39.2C92.5723 35.0444 89.78 31.0444 86.9653 26.9778C86.4459 27.4333 86.6413 27.9222 86.6358 28.3389C86.6358 31.6167 86.5687 34.8944 86.6358 38.1667C86.6693 39.4222 86.2337 39.7889 85.0385 39.6889C83.9232 39.605 82.803 39.605 81.6877 39.6889C80.5987 39.7611 80.2524 39.3889 80.2636 38.2833C80.3139 33.0278 80.2636 27.7667 80.2636 22.5111C80.2636 18.3111 80.2636 14.1167 80.2636 9.91666C80.1579 9.39696 80.2306 8.85698 80.4702 8.38333C81.1292 8.66111 81.375 9.28889 81.738 9.77778C86.027 15.6278 90.3273 21.4722 94.5549 27.3722C95.3479 28.4833 95.6718 28.25 96.3197 27.3111C100.659 21.2667 105.06 15.2667 109.444 9.25555C109.757 8.95555 109.885 8.50555 110.399 8.46666Z" fill="#0D336B"/>
  </g>
  <g filter="url(#filter3_d_1_3)">
  <path d="M189.261 62.0445C188.978 62.5518 188.878 63.1395 188.976 63.7111C188.976 67.3556 188.942 71 188.976 74.6445C188.976 75.5611 188.758 76.0056 187.736 75.95C186.44 75.8778 185.139 75.9 183.827 75.95C183.039 75.95 182.643 75.7778 182.643 74.8833C182.643 65.3833 182.643 55.8833 182.643 46.3833C182.643 45.5944 182.95 45.3333 183.715 45.3389C187.099 45.3833 190.495 45.3 193.879 45.4444C198.191 45.6222 201.988 48.9111 202.988 53.1333C203.988 57.3556 202.245 61.1889 198.347 63.4222C197.431 63.9445 197.911 64.3 198.258 64.7778C200.641 68.0741 203.02 71.3722 205.395 74.6722C205.618 74.9889 206.11 75.3111 205.892 75.7278C205.674 76.1445 205.132 75.9278 204.742 75.9333C203.116 75.9333 201.486 75.8889 199.866 75.9333C199.479 75.9671 199.09 75.8852 198.75 75.6982C198.41 75.5111 198.133 75.2274 197.956 74.8833C195.398 71.0333 192.801 67.2167 190.216 63.3889C189.931 63 189.64 62.5945 189.261 62.0445Z" fill="#0D336B"/>
  </g>
  <g filter="url(#filter4_d_1_3)">
  <path d="M126.008 56.6667C125.908 59.4445 126.354 62.9556 125.841 66.3778C124.875 72.75 119.636 77.0278 113.655 76.5944C106.858 76.1 102.262 71.4333 102.156 64.7222C102.061 58.6778 102.156 52.6333 102.117 46.5889C102.117 45.6389 102.413 45.2556 103.396 45.3056C104.647 45.3778 105.902 45.3778 107.154 45.3056C108.215 45.2389 108.489 45.65 108.483 46.6611C108.444 52.6167 108.483 58.5667 108.483 64.5167C108.418 65.8279 108.819 67.1201 109.616 68.1665C110.413 69.2128 111.555 69.9463 112.842 70.2381C114.128 70.5299 115.477 70.3614 116.651 69.7621C117.825 69.1628 118.75 68.1711 119.262 66.9611C119.62 66.1098 119.775 65.1875 119.714 64.2667C119.714 58.4945 119.714 52.7278 119.714 46.9611C119.714 45.7389 119.977 45.1722 121.323 45.2945C122.483 45.3806 123.648 45.3806 124.808 45.2945C125.79 45.2389 126.081 45.6278 126.064 46.5778C125.98 49.7556 126.008 52.8945 126.008 56.6667Z" fill="#0D336B"/>
  </g>
  <g filter="url(#filter5_d_1_3)">
  <path d="M153.82 56.2556C153.82 53.0722 153.848 49.8889 153.82 46.7056C153.82 45.7111 154.077 45.2667 155.149 45.3278C156.354 45.4028 157.563 45.4028 158.768 45.3278C159.852 45.2556 160.086 45.7 160.081 46.6945C160.041 52.6445 160.081 58.5945 160.081 64.5445C160.045 65.8474 160.461 67.1228 161.258 68.1573C162.055 69.1919 163.185 69.9228 164.459 70.2278C166.967 70.85 169.513 69.5889 170.809 67.1167C171.199 66.2776 171.377 65.3565 171.328 64.4333C171.328 58.6222 171.429 52.8111 171.384 47C171.384 45.6333 171.82 45.2111 173.138 45.3333C174.296 45.4 175.458 45.4 176.617 45.3333C177.404 45.3333 177.656 45.6333 177.656 46.3945C177.628 52.8056 177.762 59.2222 177.594 65.6278C177.432 71.7389 172.116 76.5556 165.822 76.6333C159.528 76.7111 154.25 71.9445 153.932 65.7945C153.764 62.6167 153.898 59.4278 153.898 56.25L153.82 56.2556Z" fill="#0D336B"/>
  </g>
  <g filter="url(#filter6_d_1_3)">
  <path d="M80.3308 60.5556C80.3308 55.8945 80.3308 51.2333 80.3308 46.5778C80.3308 45.5722 80.5821 45.2056 81.6488 45.2167C87.038 45.2611 92.4217 45.25 97.811 45.2167C98.6878 45.2167 99.0787 45.4445 99.0284 46.3833C98.9475 47.582 98.9475 48.7847 99.0284 49.9833C99.1122 51.0945 98.7715 51.5111 97.5764 51.4833C94.421 51.4056 91.2601 51.4833 88.0824 51.4389C87.0269 51.4389 86.541 51.6889 86.6248 52.8278C86.6974 54.0248 86.6974 55.2252 86.6248 56.4222C86.5857 57.3278 86.9319 57.6278 87.8366 57.6111C90.5285 57.5667 93.2259 57.6111 95.9177 57.5778C96.9509 57.5778 97.3363 57.8611 97.2693 58.9056C97.205 60.1492 97.205 61.3953 97.2693 62.6389C97.3083 63.5056 96.9509 63.75 96.1523 63.75C93.4102 63.7111 90.6737 63.75 87.9316 63.7167C86.9543 63.7167 86.6415 64.0167 86.6583 64.9778C86.6974 68.2556 86.6583 71.5278 86.6583 74.8056C86.6583 75.75 86.379 76.15 85.3849 76.0945C84.134 76.0278 82.8774 76.0222 81.6264 76.0945C80.5821 76.1334 80.3028 75.7 80.3084 74.6945C80.3587 69.9556 80.3308 65.25 80.3308 60.5556Z" fill="#0D336B"/>
  </g>
  <g filter="url(#filter7_d_1_3)">
  <path d="M58.9691 24.6722C55.205 24.6722 51.4409 24.6722 47.6768 24.6722C46.7385 24.6722 46.5598 24.4833 46.7218 23.5111C47.7941 17.9111 51.0946 14.0667 56.1209 11.5833C60.6613 9.31667 65.5479 8.65556 70.5295 8.37778C71.222 8.33889 71.4007 8.61111 71.3951 9.24445C71.3951 14.0944 71.3951 18.9389 71.3951 23.7833C71.3951 24.7333 70.8757 24.6611 70.2782 24.6556L58.9691 24.6722Z" fill="#ECCB46"/>
  </g>
  <g filter="url(#filter8_d_1_3)">
  <path d="M126.433 19.4111C128.052 16.35 129.672 13.4 131.185 10.3944C131.665 9.44999 132.207 8.99444 133.318 9.07221C134.756 9.14999 136.198 9.14999 137.635 9.07221C138.697 9.03333 138.814 9.32777 138.317 10.2222C135.524 15.2722 132.771 20.35 129.979 25.4C129.559 26.1219 129.345 26.9439 129.359 27.7778C129.392 31.3278 129.359 34.8833 129.392 38.4333C129.392 39.3833 129.13 39.7667 128.141 39.7111C126.888 39.6472 125.631 39.6472 124.377 39.7111C123.439 39.7556 123.199 39.3611 123.21 38.4944C123.244 34.9389 123.21 31.3889 123.21 27.8333C123.222 27.0568 123.03 26.2906 122.652 25.6111C119.863 20.5518 117.093 15.487 114.342 10.4167C113.643 9.13888 113.649 9.12777 115.14 9.12221C116.492 9.12221 117.843 9.18333 119.184 9.12221C119.635 9.04839 120.098 9.13408 120.493 9.36441C120.888 9.59474 121.189 9.95521 121.345 10.3833C122.652 13.0278 124.081 15.6167 125.478 18.2222C125.663 18.7082 125.997 19.124 126.433 19.4111Z" fill="#0D336B"/>
  </g>
  <g filter="url(#filter9_d_1_3)">
  <path d="M143.025 63.8556C143.025 67.45 142.98 71.0778 143.025 74.6444C143.025 75.8333 142.584 76.0389 141.545 75.9222C140.218 75.7606 138.999 75.117 138.12 74.1151C137.242 73.1132 136.767 71.8237 136.787 70.4944C136.759 64.7778 136.787 59.0611 136.787 53.3389C136.787 51.5 136.787 51.5 134.871 51.4945C133.341 51.4945 131.805 51.4945 130.275 51.4945C129.454 51.5222 129.091 51.2722 129.124 50.3833C129.18 49.05 129.169 47.7111 129.124 46.3722C129.097 45.5722 129.448 45.3389 130.202 45.3445C136.658 45.3445 143.114 45.3445 149.57 45.3445C150.268 45.3445 150.575 45.5778 150.553 46.3056C150.519 47.6889 150.514 49.0833 150.553 50.4556C150.581 51.2556 150.251 51.4945 149.486 51.4778C147.811 51.4445 146.135 51.5333 144.46 51.4445C143.343 51.3889 142.935 51.7111 142.958 52.8945C143.069 56.5667 143.025 60.2111 143.025 63.8556Z" fill="#0D336B"/>
  </g>
  <g filter="url(#filter10_d_1_3)">
  <path d="M218.419 75.9389C215.727 75.9389 213.035 75.9389 210.338 75.9389C209.517 75.9389 209.176 75.6945 209.181 74.8278C209.208 69.3389 209.208 63.85 209.181 58.3611C209.181 57.5722 209.483 57.3278 210.254 57.3333C215.179 57.3556 220.103 57.3556 225.025 57.3333C225.924 57.3333 226.142 57.7111 226.098 58.5C226.059 59.7445 226.036 60.9945 226.098 62.2333C226.148 63.2 225.802 63.5333 224.83 63.5167C222.183 63.4667 219.536 63.5167 216.888 63.4778C215.816 63.4778 215.369 63.75 215.453 64.8722C215.542 66.0242 215.542 67.1814 215.453 68.3333C215.369 69.4445 215.721 69.8556 216.916 69.8278C220.072 69.75 223.233 69.8278 226.41 69.7833C227.455 69.7833 227.946 70 227.851 71.15C227.773 72.3469 227.773 73.5476 227.851 74.7445C227.901 75.65 227.566 75.95 226.656 75.9333C223.903 75.9111 221.155 75.9389 218.419 75.9389Z" fill="#0D336B"/>
  </g>
  <path d="M69.1781 80.3222C67.458 78.8389 66.1232 76.9889 64.621 75.3222C61.689 72.0667 58.8463 68.7278 55.9646 65.4222C54.6299 63.8944 53.2728 62.3833 51.9436 60.85C51.6756 60.5444 51.2511 60.1889 51.3851 59.7944C51.5192 59.4 52.1279 59.5667 52.5021 59.5667C58.7737 59.5667 65.0454 59.5667 71.3115 59.5667C71.278 64.5667 71.6968 69.6111 71.0657 74.6056C70.8382 76.6199 70.1956 78.566 69.1781 80.3222Z" fill="#002A67"/>
  <g filter="url(#filter11_d_1_3)">
  <path d="M218.603 45.3445C221.2 45.3445 223.797 45.3833 226.388 45.3445C227.421 45.3445 227.929 45.5667 227.84 46.7111C227.776 47.9529 227.776 49.1971 227.84 50.4389C227.874 51.2333 227.539 51.4778 226.779 51.4722C222.512 51.4722 218.251 51.5389 213.99 51.4722C210.98 51.4167 209.148 49.4 209.187 46.5389C209.187 45.6333 209.522 45.3389 210.416 45.3556C213.136 45.3722 215.872 45.3445 218.603 45.3445Z" fill="#0D336B"/>
  </g>
  <g filter="url(#filter12_d_1_3)">
  <path d="M63.0237 32.9389C63.0237 35.6 60.9853 37.4889 58.1427 37.4611C55.4285 37.4611 53.3398 35.4778 53.3286 32.9556C53.3424 32.3342 53.4792 31.7216 53.7312 31.1529C53.9832 30.5841 54.3455 30.0704 54.7973 29.6411C55.2491 29.2118 55.7816 28.8753 56.3642 28.6509C56.9469 28.4265 57.5683 28.3186 58.1929 28.3333C58.8168 28.3095 59.4392 28.4108 60.0229 28.6313C60.6066 28.8517 61.1398 29.1868 61.5906 29.6166C62.0413 30.0463 62.4005 30.562 62.6468 31.1328C62.893 31.7035 63.0212 32.3178 63.0237 32.9389Z" fill="#0D336B"/>
  </g>
  <g filter="url(#filter13_d_1_3)">
  <path d="M66.8491 34.0833C66.5688 34.6494 66.4768 35.2896 66.5866 35.9111C66.6257 36.8222 66.4693 37.35 65.33 37.3611C64.1014 37.3611 64.1405 36.7056 64.1517 35.8722C64.1517 33.8 64.1852 31.7278 64.1517 29.6611C64.1517 28.8445 64.3695 28.4667 65.2686 28.55C66.3856 28.6333 67.5025 28.4389 68.5859 28.7389C70.8198 29.3389 71.5458 31.5556 70.0268 33.2389C69.5074 33.7945 69.4683 34.1833 69.9095 34.7389C70.2058 35.0935 70.4623 35.4791 70.6746 35.8889C70.898 36.3111 71.5849 36.7111 71.2331 37.1667C70.8813 37.6222 70.2055 37.3445 69.6694 37.2333C69.3471 37.1677 69.043 37.0333 68.7779 36.8396C68.5128 36.6459 68.293 36.3974 68.1336 36.1111C67.7315 35.4945 67.3461 34.8722 66.8491 34.0833Z" fill="#0D336B"/>
  </g>
  <g filter="url(#filter14_d_1_3)">
  <path d="M47.2134 32.8222C47.2134 31.7111 47.2134 30.6 47.2134 29.4889C47.2134 28.7944 47.4535 28.4944 48.1851 28.5167C49.4808 28.55 50.7764 28.5667 52.0944 28.5167C53.0047 28.4833 53.0103 29 53.0271 29.6278C53.0438 30.2556 52.8986 30.7889 52.0442 30.7389C51.4466 30.6944 50.8379 30.7389 50.2403 30.7389C49.7321 30.7389 49.6483 31.0667 49.6818 31.4833C49.7153 31.9 49.8494 32.0889 50.2403 32.0944C50.6312 32.1 50.9831 32.1333 51.3572 32.0944C52.0833 32.0389 52.4742 32.2278 52.4742 33.0667C52.4742 33.9056 52.0888 34.1778 51.3572 34.0278C49.7321 33.7389 49.4975 34.6167 49.6371 35.9167C49.7209 36.6833 49.7209 37.35 48.5537 37.3444C47.487 37.3444 47.1799 36.9389 47.2357 35.95C47.2916 34.9611 47.2134 33.8889 47.2134 32.8222Z" fill="#0D336B"/>
  </g>
  </g>
  <defs>
  <filter id="filter0_d_1_3" x="7.87598" y="8.54858" width="38.5457" height="59.2126" filterUnits="userSpaceOnUse" color-interpolation-filters="sRGB">
  <feFlood flood-opacity="0" result="BackgroundImageFix"/>
  <feColorMatrix in="SourceAlpha" type="matrix" values="0 0 0 0 0 0 0 0 0 0 0 0 0 0 0 0 0 0 127 0" result="hardAlpha"/>
  <feOffset dy="4"/>
  <feGaussianBlur stdDeviation="2"/>
  <feComposite in2="hardAlpha" operator="out"/>
  <feColorMatrix type="matrix" values="0 0 0 0 0 0 0 0 0 0 0 0 0 0 0 0 0 0 0.25 0"/>
  <feBlend mode="normal" in2="BackgroundImageFix" result="effect1_dropShadow_1_3"/>
  <feBlend mode="normal" in="SourceGraphic" in2="effect1_dropShadow_1_3" result="shape"/>
  </filter>
  <filter id="filter1_d_1_3" x="42.5376" y="41.4973" width="32.8916" height="59.1281" filterUnits="userSpaceOnUse" color-interpolation-filters="sRGB">
  <feFlood flood-opacity="0" result="BackgroundImageFix"/>
  <feColorMatrix in="SourceAlpha" type="matrix" values="0 0 0 0 0 0 0 0 0 0 0 0 0 0 0 0 0 0 127 0" result="hardAlpha"/>
  <feOffset dy="4"/>
  <feGaussianBlur stdDeviation="2"/>
  <feComposite in2="hardAlpha" operator="out"/>
  <feColorMatrix type="matrix" values="0 0 0 0 0 0 0 0 0 0 0 0 0 0 0 0 0 0 0.25 0"/>
  <feBlend mode="normal" in2="BackgroundImageFix" result="effect1_dropShadow_1_3"/>
  <feBlend mode="normal" in="SourceGraphic" in2="effect1_dropShadow_1_3" result="shape"/>
  </filter>
  <filter id="filter2_d_1_3" x="76.2163" y="8.38333" width="38.4226" height="39.3322" filterUnits="userSpaceOnUse" color-interpolation-filters="sRGB">
  <feFlood flood-opacity="0" result="BackgroundImageFix"/>
  <feColorMatrix in="SourceAlpha" type="matrix" values="0 0 0 0 0 0 0 0 0 0 0 0 0 0 0 0 0 0 127 0" result="hardAlpha"/>
  <feOffset dy="4"/>
  <feGaussianBlur stdDeviation="2"/>
  <feComposite in2="hardAlpha" operator="out"/>
  <feColorMatrix type="matrix" values="0 0 0 0 0 0 0 0 0 0 0 0 0 0 0 0 0 0 0.25 0"/>
  <feBlend mode="normal" in2="BackgroundImageFix" result="effect1_dropShadow_1_3"/>
  <feBlend mode="normal" in="SourceGraphic" in2="effect1_dropShadow_1_3" result="shape"/>
  </filter>
  <filter id="filter3_d_1_3" x="178.643" y="45.3388" width="31.3037" height="38.646" filterUnits="userSpaceOnUse" color-interpolation-filters="sRGB">
  <feFlood flood-opacity="0" result="BackgroundImageFix"/>
  <feColorMatrix in="SourceAlpha" type="matrix" values="0 0 0 0 0 0 0 0 0 0 0 0 0 0 0 0 0 0 127 0" result="hardAlpha"/>
  <feOffset dy="4"/>
  <feGaussianBlur stdDeviation="2"/>
  <feComposite in2="hardAlpha" operator="out"/>
  <feColorMatrix type="matrix" values="0 0 0 0 0 0 0 0 0 0 0 0 0 0 0 0 0 0 0.25 0"/>
  <feBlend mode="normal" in2="BackgroundImageFix" result="effect1_dropShadow_1_3"/>
  <feBlend mode="normal" in="SourceGraphic" in2="effect1_dropShadow_1_3" result="shape"/>
  </filter>
  <filter id="filter4_d_1_3" x="98.1121" y="45.2782" width="31.981" height="39.3464" filterUnits="userSpaceOnUse" color-interpolation-filters="sRGB">
  <feFlood flood-opacity="0" result="BackgroundImageFix"/>
  <feColorMatrix in="SourceAlpha" type="matrix" values="0 0 0 0 0 0 0 0 0 0 0 0 0 0 0 0 0 0 127 0" result="hardAlpha"/>
  <feOffset dy="4"/>
  <feGaussianBlur stdDeviation="2"/>
  <feComposite in2="hardAlpha" operator="out"/>
  <feColorMatrix type="matrix" values="0 0 0 0 0 0 0 0 0 0 0 0 0 0 0 0 0 0 0.25 0"/>
  <feBlend mode="normal" in2="BackgroundImageFix" result="effect1_dropShadow_1_3"/>
  <feBlend mode="normal" in="SourceGraphic" in2="effect1_dropShadow_1_3" result="shape"/>
  </filter>
  <filter id="filter5_d_1_3" x="149.82" y="45.3133" width="31.8601" height="39.321" filterUnits="userSpaceOnUse" color-interpolation-filters="sRGB">
  <feFlood flood-opacity="0" result="BackgroundImageFix"/>
  <feColorMatrix in="SourceAlpha" type="matrix" values="0 0 0 0 0 0 0 0 0 0 0 0 0 0 0 0 0 0 127 0" result="hardAlpha"/>
  <feOffset dy="4"/>
  <feGaussianBlur stdDeviation="2"/>
  <feComposite in2="hardAlpha" operator="out"/>
  <feColorMatrix type="matrix" values="0 0 0 0 0 0 0 0 0 0 0 0 0 0 0 0 0 0 0.25 0"/>
  <feBlend mode="normal" in2="BackgroundImageFix" result="effect1_dropShadow_1_3"/>
  <feBlend mode="normal" in="SourceGraphic" in2="effect1_dropShadow_1_3" result="shape"/>
  </filter>
  <filter id="filter6_d_1_3" x="76.3083" y="45.2164" width="26.7322" height="38.8831" filterUnits="userSpaceOnUse" color-interpolation-filters="sRGB">
  <feFlood flood-opacity="0" result="BackgroundImageFix"/>
  <feColorMatrix in="SourceAlpha" type="matrix" values="0 0 0 0 0 0 0 0 0 0 0 0 0 0 0 0 0 0 127 0" result="hardAlpha"/>
  <feOffset dy="4"/>
  <feGaussianBlur stdDeviation="2"/>
  <feComposite in2="hardAlpha" operator="out"/>
  <feColorMatrix type="matrix" values="0 0 0 0 0 0 0 0 0 0 0 0 0 0 0 0 0 0 0.25 0"/>
  <feBlend mode="normal" in2="BackgroundImageFix" result="effect1_dropShadow_1_3"/>
  <feBlend mode="normal" in="SourceGraphic" in2="effect1_dropShadow_1_3" result="shape"/>
  </filter>
  <filter id="filter7_d_1_3" x="42.6687" y="8.37415" width="32.7266" height="24.2981" filterUnits="userSpaceOnUse" color-interpolation-filters="sRGB">
  <feFlood flood-opacity="0" result="BackgroundImageFix"/>
  <feColorMatrix in="SourceAlpha" type="matrix" values="0 0 0 0 0 0 0 0 0 0 0 0 0 0 0 0 0 0 127 0" result="hardAlpha"/>
  <feOffset dy="4"/>
  <feGaussianBlur stdDeviation="2"/>
  <feComposite in2="hardAlpha" operator="out"/>
  <feColorMatrix type="matrix" values="0 0 0 0 0 0 0 0 0 0 0 0 0 0 0 0 0 0 0.25 0"/>
  <feBlend mode="normal" in2="BackgroundImageFix" result="effect1_dropShadow_1_3"/>
  <feBlend mode="normal" in="SourceGraphic" in2="effect1_dropShadow_1_3" result="shape"/>
  </filter>
  <filter id="filter8_d_1_3" x="109.892" y="9.06369" width="32.708" height="38.6526" filterUnits="userSpaceOnUse" color-interpolation-filters="sRGB">
  <feFlood flood-opacity="0" result="BackgroundImageFix"/>
  <feColorMatrix in="SourceAlpha" type="matrix" values="0 0 0 0 0 0 0 0 0 0 0 0 0 0 0 0 0 0 127 0" result="hardAlpha"/>
  <feOffset dy="4"/>
  <feGaussianBlur stdDeviation="2"/>
  <feComposite in2="hardAlpha" operator="out"/>
  <feColorMatrix type="matrix" values="0 0 0 0 0 0 0 0 0 0 0 0 0 0 0 0 0 0 0.25 0"/>
  <feBlend mode="normal" in2="BackgroundImageFix" result="effect1_dropShadow_1_3"/>
  <feBlend mode="normal" in="SourceGraphic" in2="effect1_dropShadow_1_3" result="shape"/>
  </filter>
  <filter id="filter9_d_1_3" x="125.122" y="45.3444" width="29.4324" height="38.6064" filterUnits="userSpaceOnUse" color-interpolation-filters="sRGB">
  <feFlood flood-opacity="0" result="BackgroundImageFix"/>
  <feColorMatrix in="SourceAlpha" type="matrix" values="0 0 0 0 0 0 0 0 0 0 0 0 0 0 0 0 0 0 127 0" result="hardAlpha"/>
  <feOffset dy="4"/>
  <feGaussianBlur stdDeviation="2"/>
  <feComposite in2="hardAlpha" operator="out"/>
  <feColorMatrix type="matrix" values="0 0 0 0 0 0 0 0 0 0 0 0 0 0 0 0 0 0 0.25 0"/>
  <feBlend mode="normal" in2="BackgroundImageFix" result="effect1_dropShadow_1_3"/>
  <feBlend mode="normal" in="SourceGraphic" in2="effect1_dropShadow_1_3" result="shape"/>
  </filter>
  <filter id="filter10_d_1_3" x="205.181" y="57.3333" width="26.6814" height="26.6057" filterUnits="userSpaceOnUse" color-interpolation-filters="sRGB">
  <feFlood flood-opacity="0" result="BackgroundImageFix"/>
  <feColorMatrix in="SourceAlpha" type="matrix" values="0 0 0 0 0 0 0 0 0 0 0 0 0 0 0 0 0 0 127 0" result="hardAlpha"/>
  <feOffset dy="4"/>
  <feGaussianBlur stdDeviation="2"/>
  <feComposite in2="hardAlpha" operator="out"/>
  <feColorMatrix type="matrix" values="0 0 0 0 0 0 0 0 0 0 0 0 0 0 0 0 0 0 0.25 0"/>
  <feBlend mode="normal" in2="BackgroundImageFix" result="effect1_dropShadow_1_3"/>
  <feBlend mode="normal" in="SourceGraphic" in2="effect1_dropShadow_1_3" result="shape"/>
  </filter>
  <filter id="filter11_d_1_3" x="205.187" y="45.3445" width="26.6636" height="14.1574" filterUnits="userSpaceOnUse" color-interpolation-filters="sRGB">
  <feFlood flood-opacity="0" result="BackgroundImageFix"/>
  <feColorMatrix in="SourceAlpha" type="matrix" values="0 0 0 0 0 0 0 0 0 0 0 0 0 0 0 0 0 0 127 0" result="hardAlpha"/>
  <feOffset dy="4"/>
  <feGaussianBlur stdDeviation="2"/>
  <feComposite in2="hardAlpha" operator="out"/>
  <feColorMatrix type="matrix" values="0 0 0 0 0 0 0 0 0 0 0 0 0 0 0 0 0 0 0.25 0"/>
  <feBlend mode="normal" in2="BackgroundImageFix" result="effect1_dropShadow_1_3"/>
  <feBlend mode="normal" in="SourceGraphic" in2="effect1_dropShadow_1_3" result="shape"/>
  </filter>
  <filter id="filter12_d_1_3" x="49.3286" y="28.3299" width="17.6951" height="17.1315" filterUnits="userSpaceOnUse" color-interpolation-filters="sRGB">
  <feFlood flood-opacity="0" result="BackgroundImageFix"/>
  <feColorMatrix in="SourceAlpha" type="matrix" values="0 0 0 0 0 0 0 0 0 0 0 0 0 0 0 0 0 0 127 0" result="hardAlpha"/>
  <feOffset dy="4"/>
  <feGaussianBlur stdDeviation="2"/>
  <feComposite in2="hardAlpha" operator="out"/>
  <feColorMatrix type="matrix" values="0 0 0 0 0 0 0 0 0 0 0 0 0 0 0 0 0 0 0.25 0"/>
  <feBlend mode="normal" in2="BackgroundImageFix" result="effect1_dropShadow_1_3"/>
  <feBlend mode="normal" in="SourceGraphic" in2="effect1_dropShadow_1_3" result="shape"/>
  </filter>
  <filter id="filter13_d_1_3" x="60.1487" y="28.5387" width="15.1829" height="16.8806" filterUnits="userSpaceOnUse" color-interpolation-filters="sRGB">
  <feFlood flood-opacity="0" result="BackgroundImageFix"/>
  <feColorMatrix in="SourceAlpha" type="matrix" values="0 0 0 0 0 0 0 0 0 0 0 0 0 0 0 0 0 0 127 0" result="hardAlpha"/>
  <feOffset dy="4"/>
  <feGaussianBlur stdDeviation="2"/>
  <feComposite in2="hardAlpha" operator="out"/>
  <feColorMatrix type="matrix" values="0 0 0 0 0 0 0 0 0 0 0 0 0 0 0 0 0 0 0.25 0"/>
  <feBlend mode="normal" in2="BackgroundImageFix" result="effect1_dropShadow_1_3"/>
  <feBlend mode="normal" in="SourceGraphic" in2="effect1_dropShadow_1_3" result="shape"/>
  </filter>
  <filter id="filter14_d_1_3" x="43.2134" y="28.5151" width="13.8149" height="16.8293" filterUnits="userSpaceOnUse" color-interpolation-filters="sRGB">
  <feFlood flood-opacity="0" result="BackgroundImageFix"/>
  <feColorMatrix in="SourceAlpha" type="matrix" values="0 0 0 0 0 0 0 0 0 0 0 0 0 0 0 0 0 0 127 0" result="hardAlpha"/>
  <feOffset dy="4"/>
  <feGaussianBlur stdDeviation="2"/>
  <feComposite in2="hardAlpha" operator="out"/>
  <feColorMatrix type="matrix" values="0 0 0 0 0 0 0 0 0 0 0 0 0 0 0 0 0 0 0.25 0"/>
  <feBlend mode="normal" in2="BackgroundImageFix" result="effect1_dropShadow_1_3"/>
  <feBlend mode="normal" in="SourceGraphic" in2="effect1_dropShadow_1_3" result="shape"/>
  </filter>
  <clipPath id="clip0_1_3">
  <rect width="234" height="95" fill="white"/>
  </clipPath>
  </defs>
  </svg>
  