<svg width="136" height="201" viewBox="0 0 136 201" fill="none" xmlns="http://www.w3.org/2000/svg">
  <path d="M85.7606 23.1551C85.0702 24.4064 84.2792 25.5991 83.3953 26.7215C78.4043 31.8101 73.3481 36.8116 68.3354 41.9437C66.3824 43.9009 64.1907 45.4231 61.8254 43.0528C59.4601 40.6824 60.6536 38.2686 62.8019 36.1593C67.9665 31.0707 72.9575 25.8081 78.2741 20.937C79.0029 20.4386 79.823 20.0898 80.6871 19.9106C81.5512 19.7315 82.4421 19.7256 83.3085 19.8932C84.3067 19.9585 84.8492 21.8721 85.7606 23.1551Z" fill="#0D336B"/>
  <path d="M49.5864 17.0445C49.5864 13.1519 49.5864 9.32464 49.5864 5.34511C49.5864 2.80083 50.3459 0.626221 53.2971 0.626221C56.2484 0.626221 57.507 2.58337 57.5287 5.36686C57.5287 13.0215 57.5287 20.6761 57.5287 28.3307C57.5287 31.1359 56.3569 33.0931 53.1886 33.0278C50.0204 32.9626 49.5864 30.9402 49.5864 28.3307C49.5864 24.5686 49.5864 20.8066 49.5864 17.0445Z" fill="#0D336B"/>
  <path d="M46.6135 39.9648C45.7455 40.9652 45.0077 42.5091 43.8576 42.9441C43.193 43.1696 42.4858 43.2398 41.79 43.1494C41.0942 43.0589 40.4282 42.8102 39.8431 42.4221C34.0058 36.8987 28.2769 31.2664 22.8302 25.3732C22.4363 24.6078 22.2454 23.7538 22.2758 22.8932C22.3062 22.0326 22.5569 21.1942 23.0038 20.4586C23.7014 19.9544 24.5154 19.636 25.3694 19.5333C26.2234 19.4306 27.0895 19.5469 27.8863 19.8715C33.9841 25.5037 39.7563 31.4621 45.5936 37.2683C46.0927 37.8772 46.1795 38.8123 46.6135 39.9648Z" fill="#0D336B"/>
  <path d="M76.6031 176.052L50.3894 149.521C43.0114 142.084 35.5032 134.734 28.2119 127.166C26.7593 125.653 25.7593 123.762 25.3258 121.708C22.2444 104.311 19.286 86.9145 16.4505 69.5177C15.579 63.3737 12.7382 57.6802 8.35636 53.2951C6.58676 51.6296 4.92 49.8576 3.36534 47.9891C2.60584 47.0323 1.69443 45.1621 2.12844 44.5315C2.5468 43.8866 3.09847 43.3394 3.74615 42.9267C4.39382 42.514 5.12238 42.2455 5.88255 42.1394C8.0185 42.0448 10.123 42.6813 11.8501 43.9443C16.8917 48.5323 21.639 53.435 26.0636 58.6229C29.2318 62.4067 31.3368 67.0604 34.2663 71.0834C36.6314 74.6567 39.4467 77.9092 42.6425 80.7604C47.7637 84.9574 52.6245 84.2398 57.225 79.6296L113.45 23.3726C116.857 19.9367 120.351 19.0234 123.562 20.9588C125.003 21.6399 126.157 22.8116 126.816 24.2652C127.476 25.7188 127.599 27.3598 127.164 28.8961C126.587 30.805 125.542 32.5391 124.126 33.9411C116.618 41.661 108.936 49.1634 101.363 56.8615C99.1929 58.9056 97.0229 61.0585 98.6938 64.1682C100.365 67.2778 102.795 69.9091 106.962 69.3872C108.464 69.0563 110.033 69.228 111.428 69.8761C112.823 70.5242 113.968 71.6128 114.687 72.9753C116.293 76.085 115.034 78.6945 112.799 80.9996C112.148 81.6737 111.193 82.3478 111.041 83.1742C110.43 84.9701 110.363 86.9067 110.846 88.7412C111.497 90.0242 113.797 90.6766 115.511 91.068C116.705 91.3507 118.246 90.3069 119.439 90.6114C121.609 91.1768 124.495 91.7639 125.537 93.3731C125.991 94.4002 126.226 95.5114 126.226 96.635C126.226 97.7586 125.991 98.8698 125.537 99.8969C123.041 105.399 123.627 107.573 129.226 109.791C134.824 112.009 135.367 116.772 130.875 121.295C114.962 137.242 98.9832 153.24 82.9396 169.289C80.9866 171.354 79.077 173.464 76.6031 176.052Z" fill="white"/>
  <path d="M53.6878 197.928C38.042 182.162 22.3312 166.375 6.75049 150.674L17.3184 139.649L64.7765 187.273L53.6878 197.928Z" fill="white"/>
  <path d="M100.301 60.2611L96.3278 62.8692L101.078 63.0144C108.873 63.2528 113.157 64.7832 115.145 67.4267C117.112 70.0401 117.276 74.3478 115.077 81.4472L114.53 83.2109L116.369 83.3845C120.789 83.8021 124.093 85.5399 125.881 88.2986C127.664 91.0479 128.169 95.1626 126.243 100.828L125.831 102.04L126.964 102.637C130.867 104.696 133.649 107.358 134.024 111.936L134.025 111.953L134.027 111.97C134.201 113.632 134.004 115.313 133.451 116.89C132.897 118.467 132.001 119.901 130.828 121.089L130.82 121.097L130.811 121.106C113.553 139.14 96.2444 157.188 78.8851 175.251L78.8849 175.252C77.523 176.669 76.7467 176.99 76.2569 176.993C75.7848 176.995 75.0309 176.699 73.7117 175.272L73.7014 175.261L73.691 175.251C57.9274 158.874 42.1998 142.382 26.5083 125.775C25.273 124.181 24.4864 122.283 24.2315 120.279L24.2275 120.248L24.2222 120.217C21.3589 103.392 18.5193 86.4917 15.9834 69.5732C15.2515 63.8096 12.6083 58.459 8.47703 54.3805L8.47673 54.3802C6.88124 52.806 5.39754 51.1219 4.03651 49.3401L3.99926 49.2914L3.95816 49.2458C3.04742 48.2365 2.44058 46.9887 2.20844 45.6471C1.9764 44.3061 2.12836 42.9266 2.64656 41.6688C3.23202 40.2576 4.19336 39.0355 5.42499 38.1358C6.65699 37.2358 8.11204 36.6931 9.63078 36.5668L9.64963 36.5652L9.66843 36.5632C12.0215 36.3075 14.4007 36.6677 16.5736 37.6088C18.7465 38.5499 20.6392 40.0398 22.0665 41.9333L22.0867 41.9602L22.1082 41.9861C26.3815 47.155 30.3139 52.6034 34.283 58.1028C36.0279 60.5203 37.7798 62.9477 39.571 65.3655L39.5734 65.3687C40.1528 66.1465 40.7338 66.9488 41.3222 67.7612C43.0713 70.1763 44.8856 72.6815 46.9176 74.9014L46.9217 74.9059C48.0743 76.1549 49.5002 76.8922 51.1248 76.7473C52.675 76.609 54.0662 75.6929 55.2742 74.4218L55.2757 74.4203C71.1078 57.7142 86.977 41.1369 102.937 24.465C104.32 23.0194 105.705 21.573 107.09 20.1258L107.096 20.1198C110.895 16.1073 115.019 14.2139 119.84 15.554L119.85 15.5565C128.164 17.8099 131.09 28.7664 124.672 35.7299C118.668 42.2455 112.79 48.2889 106.821 54.4256C105.786 55.49 104.748 56.5573 103.706 57.6303C102.64 58.5936 101.502 59.4731 100.301 60.2611Z" fill="url(#paint0_linear_10_104)" stroke="#0D336B" stroke-width="3"/>
  <path d="M53.5919 197.645L53.5061 197.731L53.4353 197.83C53.1402 198.241 52.763 198.568 52.3378 198.79C51.9131 199.013 51.4492 199.126 50.9821 199.126C50.515 199.126 50.0512 199.013 49.6265 198.79C49.2013 198.568 48.8241 198.241 48.529 197.83L48.465 197.741L48.3887 197.662C33.7335 182.508 19.0858 167.323 4.44551 152.107C3.17522 150.772 2.83327 149.905 2.8362 149.257C2.83917 148.6 3.19817 147.721 4.4545 146.367C8.22139 142.412 12.0016 138.49 15.8447 134.688L15.8448 134.688L15.8534 134.679C17.0777 133.448 17.8848 133.128 18.4457 133.126C18.9949 133.125 19.7796 133.43 20.9622 134.66L20.9621 134.661L20.9714 134.67C35.7513 149.783 50.4644 164.99 65.1107 180.291C65.717 181.116 66.2465 182.002 66.6916 182.936C66.2417 183.895 65.7076 184.807 65.0965 185.661C61.3349 189.732 57.5 193.727 53.5919 197.645Z" fill="url(#paint1_linear_10_104)" stroke="#0D336B" stroke-width="3"/>
  <defs>
  <linearGradient id="paint0_linear_10_104" x1="68.0955" y1="13.625" x2="68.0955" y2="178.493" gradientUnits="userSpaceOnUse">
  <stop stop-color="#ECCB46"/>
  <stop offset="1" stop-color="#FFF6D3"/>
  </linearGradient>
  <linearGradient id="paint1_linear_10_104" x1="34.8362" y1="131.626" x2="34.8362" y2="200.626" gradientUnits="userSpaceOnUse">
  <stop stop-color="#ECCB46"/>
  <stop offset="1" stop-color="#FFF6D3"/>
  </linearGradient>
  </defs>
  </svg>
  