<svg width="186" height="186" viewBox="0 0 186 186" fill="none" xmlns="http://www.w3.org/2000/svg">
  <path d="M0.336257 118.417C0.290951 102.47 5.0707 88.1428 14.919 75.5878C22.2822 66.172 32.0124 58.879 43.1161 54.4534C45.5621 53.4527 48.0728 52.6184 50.6312 51.956C50.8869 51.9092 51.1216 51.7835 51.3024 51.5967C51.4832 51.4098 51.601 51.1711 51.6392 50.914C55.9332 34.9114 65.934 21.0328 79.7557 11.8954C93.5775 2.75804 110.265 -1.00659 126.671 1.31145C140.589 3.27697 153.56 9.49277 163.811 19.1091C174.062 28.7255 181.093 41.2731 183.943 55.0367C185.869 64.4802 185.776 74.2245 183.668 83.6293C181.561 93.0342 177.488 101.887 171.716 109.606C162.622 121.702 149.738 130.405 135.121 134.325C134.854 134.367 134.607 134.49 134.412 134.678C134.218 134.865 134.086 135.108 134.033 135.372C129.987 150.325 120.958 163.448 108.44 172.573C95.9222 181.697 80.665 186.276 65.1913 185.553C56.3762 185.161 47.7261 183.027 39.7409 179.272C29.0255 174.298 19.7956 166.61 12.9652 156.971C7.35071 149.164 3.49082 140.235 1.65012 130.797C0.839329 126.718 0.399578 122.575 0.336257 118.417ZM68.1928 182.047C104.007 182.217 133.32 152.894 132.94 116.758C132.583 81.7096 103.599 52.6808 67.7284 53.0206C50.678 53.2178 34.3968 60.1467 22.4338 72.2971C10.4708 84.4475 3.79604 100.834 3.86443 117.885C4.03433 153.528 33.3754 182.189 68.1928 182.047ZM117.236 52.9866H130.856C132.238 52.9866 132.974 53.6662 132.98 54.9744C132.98 64.1372 132.98 73.2999 132.98 82.4627C132.98 83.7426 132.3 84.3599 130.986 84.3712L128.478 84.4052C128.025 84.4052 127.911 84.5977 128.121 85.0111C128.455 85.6284 128.783 86.2513 129.095 86.8799C132.318 93.2764 134.519 100.138 135.619 107.216C135.721 107.901 135.885 107.958 136.457 107.669C140.395 105.751 144.033 103.271 147.257 100.307C148.157 99.4575 149.194 99.4405 149.981 100.25C150.66 100.947 150.547 102.017 149.703 102.844C148.469 104.013 147.168 105.11 145.807 106.129C143.067 108.195 140.104 109.946 136.972 111.35C136.728 111.418 136.517 111.576 136.384 111.792C136.251 112.008 136.204 112.267 136.253 112.516C136.344 113.241 136.383 113.966 136.417 114.697C136.59 119.716 136.228 124.739 135.336 129.681C135.206 130.457 135.336 130.559 136.083 130.327C147.184 126.989 157.167 120.696 164.966 112.12C174.959 101.206 180.861 87.1647 181.666 72.3882C182.085 65.6159 181.412 58.8204 179.673 52.2618C177.383 43.7043 173.368 35.7054 167.873 28.7569C162.378 21.8083 155.521 16.0569 147.721 11.856C134.685 4.82514 119.622 2.50685 105.075 5.29241C90.5275 8.07797 77.3866 15.7968 67.87 27.1462C62.2981 33.8074 58.1296 41.5258 55.6148 49.838C55.3543 50.6931 55.4279 50.7837 56.2378 50.6421C61.8995 49.5779 67.6783 49.277 73.4199 49.7474C73.6658 49.7882 73.918 49.736 74.1274 49.6009C74.3368 49.4658 74.4884 49.2576 74.5526 49.0168C77.4235 42.6961 81.6706 37.0968 86.9833 32.628C88.5202 31.3088 90.1539 30.1067 91.8707 29.032C92.1528 28.8397 92.4863 28.7368 92.8278 28.7368C93.1692 28.7368 93.5027 28.8397 93.7848 29.032C94.0566 29.1959 94.275 29.435 94.4137 29.7205C94.5524 30.0059 94.6054 30.3254 94.5664 30.6403C94.5205 30.962 94.3977 31.268 94.2084 31.5322C94.0191 31.7964 93.7689 32.011 93.479 32.158C86.9338 36.4489 81.6717 42.4309 78.2507 49.4699C77.9788 50.0362 77.9222 50.2684 78.6981 50.3873C83.5608 51.1172 88.3292 52.3762 92.9184 54.1419C95.5888 55.1758 98.1932 56.3729 100.717 57.7266C101.492 58.14 101.577 58.0947 101.589 57.2226C101.589 56.5487 101.589 55.8691 101.589 55.1952C101.589 53.5756 102.155 52.9866 103.769 52.9866H117.236ZM117.298 56.4977C113.464 56.4977 109.63 56.4977 105.797 56.4977C105.23 56.4977 105.026 56.6336 105.066 57.2113C105.128 57.8572 105.128 58.5077 105.066 59.1537C105.019 59.4949 105.08 59.8422 105.24 60.1469C105.401 60.4516 105.653 60.6984 105.961 60.8526C113.103 65.5614 119.266 71.6073 124.111 78.6572C125.335 80.458 126.614 81.2338 128.71 80.9224C129.276 80.8431 129.491 80.8148 129.491 80.1692C129.461 72.5241 129.461 64.8809 129.491 57.2396C129.491 56.6223 129.327 56.4864 128.732 56.4864C124.927 56.509 121.11 56.4977 117.298 56.4977Z" fill="#0D336B"/>
  <path d="M68.1929 182.047C33.3755 182.189 4.03443 153.528 3.86453 117.885C3.79614 100.834 10.4709 84.4475 22.4339 72.2971C34.3969 60.1467 50.6781 53.2177 67.7285 53.0206C103.599 52.6808 132.584 81.7095 132.94 116.758C133.308 152.894 104.007 182.217 68.1929 182.047ZM68.2609 164.667C70.8504 164.663 73.4355 164.451 75.9911 164.033C81.0428 163.25 85.9278 161.627 90.4436 159.231C100.645 153.823 108.505 144.857 112.53 134.036C113.992 130.172 114.923 126.127 115.299 122.013C115.718 117.744 115.549 113.438 114.795 109.215C114.019 105.107 112.733 101.112 110.967 97.3225C110.184 95.6306 109.283 93.9957 108.271 92.4296C107.739 91.6142 107.054 91.297 106.312 91.4499C105.004 91.7388 104.551 93.0243 105.338 94.3211C106.731 96.5718 107.932 98.936 108.928 101.389C111.48 107.772 112.486 114.669 111.864 121.516C111.242 128.362 109.01 134.965 105.351 140.785C101.691 146.604 96.7067 151.476 90.8051 155.003C84.9036 158.53 78.2518 160.611 71.3926 161.077C66.8281 161.434 62.2359 161.036 57.8009 159.899C48.4186 157.537 40.0865 152.125 34.1127 144.515C28.1389 136.904 24.8617 127.526 24.7957 117.851C24.7957 116.718 24.2294 116.022 23.363 115.886C22.1624 115.699 21.3242 116.452 21.3242 117.777C21.3212 122.973 22.2002 128.132 23.9236 133.034C26.2705 139.826 30.1455 145.989 35.25 151.048C44.0257 159.782 55.9021 164.686 68.2835 164.69L68.2609 164.667ZM68.4251 101.887H54.7031C53.3383 101.887 52.6757 102.51 52.6757 103.835C52.6757 112.968 52.6757 122.102 52.6757 131.238C52.6757 132.547 53.378 133.266 54.6692 133.271C63.802 133.271 72.9368 133.271 82.0734 133.271C83.4326 133.271 84.0612 132.626 84.0612 131.278V103.886C84.0612 102.448 83.4949 101.893 82.0281 101.887H68.4251ZM68.9291 70.4514C67.7682 70.508 66.6072 70.5533 65.4462 70.6156C60.499 70.8733 55.6278 71.9428 51.0277 73.7813C41.948 77.3974 34.2134 83.7407 28.8902 91.937C27.3739 94.2387 26.0715 96.6746 24.9996 99.214C24.4333 100.499 25.0732 101.677 26.3361 101.847C27.1743 101.961 27.8369 101.462 28.3126 100.375C31.2152 93.6137 35.7984 87.707 41.6268 83.2159C51.7639 75.4292 63.147 72.5864 75.7873 74.5854C76.801 74.7497 77.8034 74.9818 78.8171 75.1064C79.158 75.1498 79.5036 75.0789 79.7999 74.9046C80.0961 74.7304 80.3261 74.4628 80.4537 74.1437C80.5952 73.8488 80.6486 73.5194 80.6074 73.1949C80.5662 72.8704 80.4322 72.5647 80.2215 72.3145C80.0458 72.1077 79.8306 71.9381 79.5884 71.8156C79.3463 71.6931 79.0821 71.6201 78.8114 71.601C75.5671 70.8704 72.2545 70.4851 68.9291 70.4514Z" fill="url(#paint0_linear_10_149)"/>
  <path d="M117.236 52.9867H103.775C102.166 52.9867 101.589 53.553 101.594 55.1953C101.594 55.8692 101.594 56.5487 101.594 57.2226C101.594 58.0947 101.498 58.14 100.722 57.7266C98.1987 56.373 95.5944 55.1758 92.924 54.1419C88.3348 52.3762 83.5664 51.1172 78.7036 50.3873C77.9278 50.2684 77.9844 50.0192 78.2562 49.4699C81.6772 42.431 86.9393 36.4489 93.4846 32.158C93.7734 32.0104 94.0225 31.7954 94.2108 31.5313C94.399 31.2671 94.521 30.9615 94.5663 30.6403C94.6025 30.3266 94.5475 30.0092 94.4079 29.7259C94.2683 29.4427 94.0499 29.2057 93.7791 29.0434C93.497 28.851 93.1635 28.7481 92.822 28.7481C92.4806 28.7481 92.147 28.851 91.8649 29.0434C90.1505 30.1147 88.5187 31.313 86.9832 32.6281C81.6726 37.0974 77.4275 42.6967 74.5582 49.0169C74.4939 49.2576 74.3424 49.4659 74.133 49.6009C73.9236 49.736 73.6713 49.7882 73.4255 49.7474C67.6839 49.277 61.9051 49.5779 56.2434 50.6422C55.4335 50.7838 55.3599 50.6931 55.6204 49.838C58.1426 41.5151 62.3229 33.7886 67.9096 27.1236C77.4382 15.7912 90.5781 8.08493 105.12 5.30036C119.662 2.5158 134.72 4.82277 147.761 11.8334C155.558 16.0391 162.413 21.7952 167.904 28.7477C173.395 35.7001 177.406 43.7022 179.69 52.2618C181.429 58.8204 182.102 65.616 181.683 72.3882C181.081 83.0163 177.853 93.3291 172.288 102.404C166.723 111.478 158.994 119.031 149.794 124.386C145.473 126.893 140.871 128.882 136.083 130.31C135.324 130.542 135.205 130.44 135.336 129.664C136.228 124.722 136.59 119.699 136.417 114.68C136.383 113.949 136.344 113.224 136.253 112.5C136.204 112.25 136.251 111.992 136.384 111.775C136.517 111.559 136.728 111.401 136.972 111.333C140.104 109.929 143.067 108.178 145.807 106.112C147.168 105.093 148.469 103.996 149.703 102.827C150.558 102 150.66 100.93 149.981 100.233C149.194 99.4236 148.157 99.4406 147.257 100.29C144.033 103.254 140.395 105.734 136.457 107.652C135.891 107.941 135.721 107.884 135.619 107.199C134.519 100.121 132.318 93.2595 129.095 86.8629C128.783 86.2344 128.455 85.6114 128.121 84.9941C127.9 84.5807 128.025 84.3939 128.478 84.3882L130.986 84.3542C132.3 84.3542 132.98 83.7256 132.98 82.4458C132.98 73.283 132.98 64.1202 132.98 54.9574C132.98 53.6493 132.238 52.9697 130.856 52.9697L117.236 52.9867ZM116.84 25.1925C119.052 25.0664 121.272 25.1822 123.46 25.5379C135.919 27.5125 145.809 33.655 153.129 43.9655C156.349 48.5542 158.626 53.7358 159.829 59.2104C160.985 64.4639 161.159 69.8857 160.344 75.2028C159.82 78.6758 158.887 82.0746 157.564 85.3283C157.433 85.597 157.372 85.8945 157.387 86.193C157.402 86.4916 157.492 86.7815 157.649 87.0358C157.807 87.2901 158.025 87.5005 158.286 87.6476C158.546 87.7946 158.839 87.8734 159.138 87.8766C159.931 87.9163 160.588 87.3783 160.99 86.3363C162.912 81.46 164.04 76.3075 164.331 71.0744C164.679 64.492 163.631 57.9104 161.255 51.7617C158.879 45.613 155.23 40.0362 150.547 35.3973C147.163 32.0411 143.3 29.2051 139.085 26.982C133.292 23.9368 126.926 22.1389 120.396 21.7041C118.186 21.5446 115.967 21.5578 113.759 21.7437C113.514 21.749 113.273 21.8055 113.052 21.9098C112.83 22.014 112.633 22.1635 112.473 22.3487C112.313 22.5339 112.193 22.7507 112.122 22.985C112.051 23.2192 112.03 23.4658 112.06 23.7088C112.19 24.6828 113.011 25.2491 114.116 25.1982C115.005 25.1585 115.922 25.1925 116.84 25.1925Z" fill="url(#paint1_linear_10_149)"/>
  <path d="M117.299 56.4977C121.11 56.4977 124.916 56.4977 128.727 56.4977C129.293 56.4977 129.491 56.6337 129.486 57.2509C129.463 64.896 129.463 72.5392 129.486 80.1805C129.486 80.8261 129.248 80.8544 128.704 80.9337C126.609 81.2509 125.306 80.475 124.106 78.6685C119.26 71.6187 113.097 65.5727 105.955 60.8639C105.647 60.7098 105.395 60.463 105.235 60.1583C105.074 59.8535 105.013 59.5062 105.06 59.165C105.123 58.5191 105.123 57.8686 105.06 57.2226C105.021 56.6563 105.23 56.5034 105.791 56.5091C109.636 56.5091 113.465 56.4977 117.299 56.4977Z" fill="white"/>
  <path d="M68.2608 164.667C55.8795 164.664 44.003 159.759 35.2273 151.025C30.1228 145.966 26.2478 139.803 23.9009 133.011C22.1775 128.109 21.2985 122.951 21.3015 117.755C21.3015 116.447 22.1397 115.676 23.3403 115.863C24.2237 115.999 24.7617 116.701 24.7731 117.828C24.7947 120.044 24.984 122.255 25.3394 124.443C26.7183 132.865 30.5228 140.702 36.2872 146.996C42.0517 153.289 49.526 157.765 57.7952 159.876C62.2302 161.014 66.8224 161.412 71.3869 161.054C78.2406 160.575 84.8845 158.486 90.7786 154.956C96.6727 151.426 101.651 146.555 105.308 140.739C108.965 134.923 111.199 128.326 111.827 121.485C112.455 114.644 111.46 107.75 108.923 101.366C107.927 98.9134 106.726 96.5492 105.332 94.2985C104.545 93.0017 104.998 91.7162 106.306 91.4273C107.048 91.2574 107.733 91.5916 108.266 92.407C109.277 93.9731 110.178 95.608 110.961 97.2999C112.727 101.09 114.013 105.084 114.79 109.192C115.543 113.415 115.713 117.722 115.294 121.991C114.925 126.104 114.001 130.148 112.547 134.013C108.521 144.834 100.662 153.8 90.4606 159.208C85.9448 161.604 81.0598 163.227 76.0081 164.01C73.4475 164.437 70.8567 164.657 68.2608 164.667Z" fill="#0D336B"/>
  <path d="M68.425 101.887H82.0167C83.4721 101.887 84.0498 102.453 84.0498 103.886V131.284C84.0498 132.632 83.4212 133.277 82.062 133.277C72.9254 133.277 63.7906 133.277 54.6578 133.277C53.3665 133.277 52.6643 132.552 52.6643 131.244C52.6643 122.112 52.6643 112.977 52.6643 103.841C52.6643 102.516 53.3269 101.893 54.6917 101.893H68.3967L68.425 101.887ZM56.1981 117.625C56.1981 121.407 56.1981 125.19 56.1981 128.951C56.1981 129.557 56.3114 129.766 56.9797 129.766C64.5986 129.736 72.2175 129.736 79.8364 129.766C80.5216 129.766 80.6179 129.534 80.6122 128.934C80.6122 121.345 80.6122 113.753 80.6122 106.157C80.6122 105.545 80.4876 105.336 79.8194 105.336C72.2307 105.366 64.6382 105.366 57.042 105.336C56.385 105.336 56.1812 105.477 56.1868 106.168C56.2151 110.008 56.1981 113.813 56.1981 117.625Z" fill="#0D336B"/>
  <path d="M68.9289 70.4514C72.2537 70.4795 75.5663 70.8591 78.8112 71.584C79.0819 71.6031 79.3461 71.6761 79.5882 71.7986C79.8304 71.9211 80.0456 72.0908 80.2213 72.2976C80.432 72.5478 80.566 72.8534 80.6072 73.1779C80.6484 73.5024 80.595 73.8318 80.4535 74.1267C80.3259 74.4458 80.0959 74.7134 79.7997 74.8876C79.5034 75.0619 79.1578 75.1329 78.8169 75.0894C77.8032 74.9649 76.8008 74.7327 75.787 74.5684C63.1694 72.5694 51.7637 75.4122 41.6266 83.1989C35.7982 87.69 31.2149 93.5967 28.3124 100.358C27.8367 101.445 27.1797 101.944 26.3359 101.83C25.073 101.66 24.4557 100.482 24.9994 99.197C26.0713 96.6576 27.3736 94.2217 28.89 91.92C34.2132 83.7237 41.9478 77.3804 51.0275 73.7643C55.634 71.9298 60.511 70.866 65.463 70.6156C66.5957 70.5533 67.768 70.508 68.9289 70.4514Z" fill="#0D336B"/>
  <path d="M116.84 25.1925C115.922 25.1925 115.005 25.1585 114.087 25.1925C112.955 25.2434 112.162 24.6771 112.032 23.7031C112.001 23.4601 112.023 23.2136 112.094 22.9793C112.165 22.745 112.284 22.5283 112.444 22.3431C112.605 22.1578 112.802 22.0083 113.023 21.9041C113.245 21.7999 113.486 21.7433 113.731 21.738C115.948 21.5525 118.177 21.5412 120.396 21.7041C126.926 22.1389 133.292 23.9368 139.085 26.982C143.294 29.2048 147.151 32.0387 150.53 35.3916C155.213 40.0305 158.862 45.6073 161.238 51.756C163.614 57.9047 164.662 64.4863 164.314 71.0687C164.023 76.3018 162.895 81.4543 160.973 86.3306C160.571 87.3726 159.914 87.9106 159.121 87.8709C158.822 87.8677 158.529 87.7889 158.269 87.6419C158.009 87.4949 157.79 87.2844 157.633 87.0301C157.475 86.7758 157.385 86.4859 157.37 86.1874C157.355 85.8888 157.416 85.5913 157.547 85.3226C158.87 82.0689 159.803 78.6701 160.327 75.1971C161.142 69.88 160.968 64.4582 159.812 59.2047C158.613 53.7333 156.342 48.5538 153.13 43.9654C145.847 33.6663 135.957 27.5256 123.46 25.5436C121.273 25.186 119.053 25.0682 116.84 25.1925Z" fill="#0D336B"/>
  <path d="M56.1982 117.624C56.1982 113.813 56.1982 110.008 56.1982 106.196C56.1982 105.506 56.3965 105.364 57.0534 105.364C64.6459 105.387 72.2383 105.387 79.8308 105.364C80.4991 105.364 80.6237 105.574 80.6237 106.185C80.601 113.781 80.601 121.373 80.6237 128.962C80.6237 129.562 80.533 129.8 79.8478 129.794C72.2289 129.764 64.61 129.764 56.9911 129.794C56.3228 129.794 56.2039 129.585 56.2096 128.979C56.2096 125.213 56.1982 121.407 56.1982 117.624Z" fill="white"/>
  <defs>
  <linearGradient id="paint0_linear_10_149" x1="68.4039" y1="53.0176" x2="68.4039" y2="182.048" gradientUnits="userSpaceOnUse">
  <stop stop-color="#ECCB46"/>
  <stop offset="1" stop-color="#FFF6D3"/>
  </linearGradient>
  <linearGradient id="paint1_linear_10_149" x1="118.645" y1="4.15015" x2="118.645" y2="130.419" gradientUnits="userSpaceOnUse">
  <stop stop-color="#ECCB46"/>
  <stop offset="1" stop-color="#FFF6D3"/>
  </linearGradient>
  </defs>
  </svg>
  