<svg width="861" height="867" viewBox="0 0 861 867" fill="none" xmlns="http://www.w3.org/2000/svg">
  <g clip-path="url(#clip0_73_52)">
  <path d="M169.83 866.958H10.3953C11.4517 864.337 9.16983 862.731 8.11341 861.336C3.42149 854.244 0.671755 846.044 0.1388 837.556C-0.394155 829.069 1.30832 820.589 5.07622 812.966C8.84412 805.342 14.5456 798.84 21.6112 794.111C28.6768 789.381 36.8593 786.588 45.3416 786.011C48.3841 785.799 49.5673 785.419 49.8209 781.784C50.2121 773.614 52.3439 765.623 56.0735 758.345C59.8031 751.067 65.0443 744.67 71.4462 739.583C77.8481 734.496 85.2628 730.836 93.1936 728.849C101.124 726.861 109.388 726.592 117.432 728.058C119.189 728.561 121.069 728.409 122.724 727.632C124.379 726.855 125.696 725.505 126.432 723.831C146.462 693.566 174.633 680.617 210.946 684.985C214.532 685.527 218.076 686.318 221.552 687.352C224.848 688.24 228.018 689.466 231.271 690.523C235.497 674.418 241.793 668.585 257.513 667.063C260.344 666.809 260.26 665.583 260.513 663.47C263.133 642.335 273.486 626.949 293.347 618.621C303.252 614.217 314.376 613.381 324.828 616.254C325.503 616.611 326.252 616.806 327.016 616.824C327.779 616.843 328.537 616.684 329.228 616.36C329.92 616.037 330.528 615.557 331.003 614.96C331.479 614.362 331.809 613.662 331.969 612.915C333.214 610.067 335.24 607.63 337.813 605.887C340.386 604.143 343.4 603.165 346.506 603.066C339.491 589.117 340.04 579.818 348.238 571.617C351.876 567.881 356.672 565.488 361.845 564.828C367.017 564.168 372.26 565.28 376.719 567.982C378.325 568.912 379.466 571.955 381.917 570.265C384.368 568.574 382.846 566.249 382.846 564.178C382.846 525.458 382.846 486.725 382.846 447.977C382.846 444.723 382.846 441.51 382.846 438.298C386.227 437.833 387.072 440.707 388.382 442.525C397.905 457.593 405.032 474.049 409.51 491.304C410.313 494.813 409.511 498.363 410.567 501.829C410.82 502.675 411.708 501.364 410.99 501.829C410.271 502.294 410.44 501.829 410.398 501.534C409.637 494.601 412.849 488.599 415.215 482.47C419.834 471.832 425.707 461.785 432.709 452.543C433.202 451.583 433.915 450.754 434.788 450.122C435.662 449.491 436.673 449.074 437.738 448.907C437.738 485.26 437.738 521.612 437.738 557.964C437.738 562.191 437.738 564.685 443.358 565.15C446.28 565.527 448.979 566.911 450.992 569.063C453.005 571.215 454.205 574.002 454.387 576.943C454.81 579.691 455.232 580.283 458.317 579.564C463.751 578.064 469.536 578.481 474.699 580.744C479.862 583.007 484.09 586.979 486.671 591.991C487.939 594.105 488.193 596.218 492.165 595.162C500.205 592.245 508.976 592.029 517.15 594.546C525.324 597.063 532.455 602.176 537.464 609.111C547.817 622.722 548.07 640.221 538.182 655.988C537.969 656.417 537.813 656.872 537.718 657.341C542.967 657.981 547.906 660.173 551.903 663.637C555.901 667.101 558.774 671.679 560.156 676.785C561.466 681.35 563.832 678.603 565.227 678.095C570.765 676.024 576.672 675.122 582.576 675.446C588.48 675.769 594.253 677.312 599.532 679.976C604.811 682.64 609.481 686.368 613.25 690.926C617.018 695.483 619.803 700.772 621.428 706.458C622.52 711.055 623.045 715.768 622.992 720.492C641.035 716.984 652.994 721.845 659.502 735.16C660.051 736.301 660.516 737.485 660.981 738.71C662.206 741.881 660.558 746.869 663.474 748.137C666.389 749.405 669.854 746.615 673.235 746.023C683.165 744.426 693.342 746.287 702.065 751.296C710.787 756.305 717.526 764.158 721.154 773.541C722.591 777.176 723.436 777.345 726.817 775.781C730.308 774.084 734.142 773.211 738.024 773.231C741.905 773.25 745.731 774.16 749.205 775.892C752.68 777.623 755.71 780.13 758.063 783.218C760.416 786.306 762.029 789.894 762.777 793.704C763.453 796.959 763.918 797.593 767.003 796.367C776.224 792.909 786.101 791.551 795.913 792.392C805.725 793.232 815.227 796.25 823.726 801.226C832.226 806.202 839.51 813.01 845.048 821.156C850.586 829.302 854.239 838.581 855.742 848.317C856.165 850.853 857.052 851.149 859.292 851.487C863.973 852.048 868.486 853.583 872.539 855.992C876.593 858.402 880.098 861.633 882.829 865.478C881.177 866.514 879.236 866.989 877.293 866.831H650.247C648.834 865.503 647.637 863.962 646.698 862.266C644.284 857.487 640.231 853.738 635.281 851.704C630.33 849.67 624.812 849.488 619.738 851.191C617.449 852.031 614.954 852.132 612.604 851.48C610.254 850.828 608.168 849.455 606.638 847.556C602.621 842.988 597.295 839.771 591.384 838.341C588.389 837.969 585.634 836.511 583.641 834.245C581.647 831.978 580.553 829.059 580.566 826.04C579.519 818.657 576.747 811.624 572.474 805.514C568.201 799.403 562.547 794.387 555.973 790.872C550.161 787.471 543.724 785.276 537.047 784.417C530.369 783.557 523.587 784.051 517.104 785.87C510.621 787.688 504.571 790.794 499.313 795.001C494.056 799.208 489.699 804.431 486.502 810.358C485.573 812.091 484.728 813.824 483.798 815.515C483.06 817.335 481.711 818.84 479.984 819.774C478.257 820.707 476.258 821.01 474.332 820.63C466.996 819.797 459.586 821.353 453.204 825.068C446.316 828.492 443.654 828.027 439.048 821.602C427.871 805.612 411.651 793.838 392.988 788.166C379.218 783.644 364.53 782.667 350.282 785.327C336.035 787.987 322.687 794.197 311.475 803.384C310.955 803.758 310.461 804.168 309.996 804.609C307.606 807.496 304.326 809.507 300.669 810.325C297.013 811.144 293.189 810.724 289.797 809.132C268.669 801.651 239.089 812.979 227.257 831.789C225.975 834.379 223.784 836.406 221.102 837.483C218.421 838.559 215.437 838.608 212.721 837.622C193.916 833.395 178.366 842.906 172.704 861.209C172.255 863.34 171.266 865.32 169.83 866.958Z" fill="#F1E4B1"/>
  <path d="M340.716 518.357C336.153 518.357 334.293 515.905 334.42 512.312C334.395 511.505 334.546 510.701 334.862 509.957C335.178 509.213 335.651 508.547 336.25 508.004C336.849 507.461 337.558 507.055 338.33 506.814C339.101 506.572 339.915 506.501 340.716 506.606C341.523 506.556 342.33 506.685 343.081 506.983C343.832 507.281 344.508 507.741 345.061 508.33C345.614 508.92 346.03 509.624 346.28 510.393C346.529 511.161 346.606 511.975 346.506 512.777C346.559 513.542 346.445 514.31 346.17 515.026C345.895 515.741 345.466 516.388 344.914 516.92C344.362 517.452 343.7 517.857 342.975 518.105C342.249 518.353 341.479 518.439 340.716 518.357Z" fill="#E9E8CF"/>
  <path d="M533.788 562.191C528.717 562.191 526.815 559.739 526.773 556.611C526.742 555.847 526.872 555.084 527.153 554.372C527.434 553.66 527.861 553.015 528.406 552.478C528.951 551.941 529.602 551.523 530.318 551.252C531.034 550.981 531.798 550.863 532.562 550.905C533.318 550.866 534.073 550.989 534.777 551.267C535.48 551.545 536.116 551.971 536.641 552.516C537.166 553.061 537.568 553.713 537.819 554.426C538.07 555.14 538.165 555.9 538.098 556.654C537.971 560.331 536.112 562.191 533.788 562.191Z" fill="#EBEBD3"/>
  <path d="M355.844 477.017C355.874 477.504 355.802 477.992 355.634 478.451C355.466 478.909 355.205 479.328 354.868 479.681C354.531 480.034 354.125 480.314 353.675 480.503C353.225 480.692 352.741 480.786 352.253 480.779C351.29 480.755 350.371 480.371 349.678 479.702C348.985 479.033 348.568 478.128 348.51 477.167C348.452 476.205 348.756 475.257 349.363 474.509C349.97 473.761 350.835 473.269 351.788 473.128C352.321 473.064 352.863 473.119 353.372 473.289C353.882 473.46 354.348 473.741 354.736 474.113C355.124 474.485 355.424 474.938 355.616 475.44C355.808 475.943 355.886 476.481 355.844 477.017Z" fill="#D7D7CD"/>
  <path d="M462.754 562.191C459.881 562.191 458.528 560.712 458.528 558.302C458.511 557.761 458.612 557.222 458.824 556.724C459.036 556.226 459.355 555.78 459.757 555.418C460.16 555.055 460.636 554.785 461.154 554.627C461.672 554.468 462.218 554.424 462.754 554.498C463.238 554.492 463.719 554.584 464.166 554.771C464.613 554.957 465.017 555.233 465.353 555.581C465.69 555.93 465.951 556.344 466.122 556.797C466.293 557.25 466.369 557.734 466.346 558.218C466.304 560.458 465.332 562.191 462.754 562.191Z" fill="#D9D7C9"/>
  <path d="M330.364 554.582C330.375 555.095 330.284 555.604 330.095 556.08C329.907 556.557 329.626 556.991 329.268 557.357C328.909 557.723 328.482 558.014 328.01 558.213C327.537 558.411 327.03 558.514 326.518 558.514C325.55 558.56 324.602 558.221 323.882 557.572C323.162 556.923 322.727 556.016 322.673 555.047C322.642 554.542 322.711 554.036 322.877 553.558C323.042 553.079 323.299 552.638 323.635 552.259C323.97 551.881 324.377 551.572 324.832 551.35C325.287 551.129 325.781 550.999 326.286 550.968C326.791 550.938 327.297 551.007 327.775 551.172C328.253 551.337 328.694 551.595 329.073 551.931C329.452 552.266 329.76 552.673 329.982 553.128C330.203 553.583 330.333 554.077 330.364 554.582Z" fill="#D9D9D0"/>
  <path d="M809.175 606.448C810.654 606.913 811.541 607.504 811.499 608.73C811.516 609.051 811.46 609.372 811.337 609.669C811.214 609.966 811.026 610.231 810.787 610.446C810.548 610.661 810.264 610.819 809.956 610.91C809.648 611.001 809.323 611.021 809.006 610.971C808.728 610.955 808.456 610.883 808.206 610.758C807.957 610.633 807.737 610.458 807.558 610.244C807.38 610.029 807.247 609.781 807.169 609.513C807.091 609.245 807.069 608.965 807.104 608.688C807.104 607.166 808.372 606.913 809.175 606.448Z" fill="#9B9E98"/>
  <path d="M169.83 866.958C170.102 861.94 171.477 857.043 173.856 852.617C176.235 848.191 179.56 844.343 183.595 841.349C187.63 838.354 192.274 836.286 197.199 835.291C202.124 834.296 207.207 834.399 212.087 835.593C218.468 836.946 221.764 836.143 225.567 830.436C233.229 819.56 244.268 811.521 256.969 807.569C269.67 803.617 283.32 803.973 295.798 808.583C299.389 809.935 300.826 809.048 303.784 806.596C326.349 788.124 351.365 778.233 381.494 783.644C393.659 785.646 405.288 790.108 415.671 796.758C426.053 803.409 434.971 812.106 441.879 822.321C444.457 825.914 446.823 826.548 450.331 824.434C454.025 821.859 458.201 820.057 462.608 819.134C467.016 818.212 471.564 818.189 475.98 819.066C479.572 819.869 480.882 817.375 482.065 814.839C486.658 803.186 495.426 793.661 506.659 788.124C517.353 782.654 529.607 781.042 541.352 783.559C560.705 787.532 572.157 799.41 580.27 816.065C582.009 820.447 582.994 825.092 583.186 829.802C583.15 831.319 583.702 832.79 584.725 833.909C585.749 835.028 587.166 835.707 588.679 835.805C597.511 836.904 603.765 842.357 609.807 848.147C610.599 849.241 611.77 849.999 613.091 850.272C614.413 850.546 615.789 850.316 616.949 849.627C632.668 843.963 648.261 853.009 650.501 866.535C630.894 866.535 611.329 866.535 591.722 866.535L169.83 866.958Z" fill="#ECCB46"/>
  <path d="M444.128 463.433L441.803 385.028C440.327 383.231 438.209 383.666 436.275 383.555C430.267 383.158 424.259 385.234 418.252 383.555C412.126 383.312 405.985 383.327 399.845 383.555C398.317 383.418 396.778 383.604 395.328 384.1C393.114 387.619 391.401 384.026 389.468 383.761C385.202 383.644 380.803 382.23 376.832 385.057C376.242 412.802 375.649 440.549 375.053 468.299C375.053 469.507 375.297 470.795 374.249 471.774C372.906 474.277 373.968 476.928 373.74 479.512C374.345 484.731 374.876 485.261 379.821 485.519C380.891 485.571 381.962 485.571 383.039 485.6C386.412 485.718 388.538 487.61 388.08 490.753C387.556 494.361 388.7 496.569 390.833 498.115C395.409 497.712 400.018 497.897 404.546 498.668C405.337 498.792 406.055 499.204 406.561 499.823C406.952 499.698 407.299 499.566 407.727 499.411C410.037 495.973 409.993 492.189 409.55 488.294C408.867 482.669 408.892 476.981 409.624 471.362C411.336 473.313 410.864 475.08 410.886 476.699C410.96 482.243 410.886 487.794 410.938 493.345C410.938 495.472 410.701 497.71 412.414 499.455C413.808 500.084 415.312 500.437 416.842 500.493C417.018 500.47 417.196 500.457 417.373 500.456H419.263C420.636 500.368 422.016 500.191 423.396 500.052L424.533 499.801C424.989 499.561 425.493 499.426 426.009 499.404L426.333 499.308L426.621 499.249C430.061 498.211 432.909 496.429 433.123 491.924C433.36 487.087 435.751 485.46 440.172 485.482C443.862 485.482 445.338 483.502 445.338 479.894C445.309 474.41 444.194 468.962 444.128 463.433Z" fill="#EAEAE1"/>
  <path d="M439.574 316.465C439.149 314.326 438.883 312.158 438.777 309.979C438.703 308.687 438.703 307.392 438.777 306.1C438.429 305.36 438.181 304.578 438.039 303.773C437.958 303.582 437.877 303.383 437.788 303.199L437.707 303.125L430.378 295.314C431.854 290.271 432.297 285.228 430.253 280.215C428.717 278.419 430.002 275.798 428.385 274.009C426.611 273.209 424.651 272.909 422.717 273.14C413.285 273.012 403.85 273.012 394.413 273.14C392.442 273.081 390.464 272.941 388.671 274.001C387.283 276.041 387.8 278.529 387.077 280.723C386.081 282.806 385.556 285.081 385.538 287.389C385.52 289.696 386.01 291.979 386.973 294.078C386.124 297.898 382.715 299.857 380.552 302.713C379.088 304.473 378.266 306.677 378.22 308.964C377.846 332.973 377.413 356.981 376.921 380.986C378.331 382.804 380.405 382.664 382.346 382.687C387.667 382.753 392.981 382.834 398.302 382.687C405.137 382.687 411.971 382.915 418.805 382.591C424.666 382.878 430.533 382.79 436.393 382.635C438.379 382.583 440.94 383.025 441.56 380.014C441.257 371.695 440.903 363.383 440.644 355.072C440.261 342.173 439.929 329.319 439.574 316.465Z" fill="#E9E8E2"/>
  <path d="M416.163 195.515C420.591 204.74 422.067 214.693 423.433 224.654C423.972 228.556 425.145 232.428 424.503 236.433C421.056 238.936 417.122 237.633 413.432 237.802C409.963 237.964 406.494 237.972 403.026 237.802C399.269 237.633 395.372 238.958 391.925 236.418C392.663 222.431 394.494 208.642 399.623 195.471C404.973 193.561 410.824 193.576 416.163 195.515Z" fill="#ECEBE3"/>
  <path d="M445.161 471.745C460.845 472.842 474.469 480.579 477.997 496.407C479.473 502.923 478.817 503.629 472.285 503.637C466.247 503.637 460.195 503.468 454.166 503.725C450.697 503.872 448.608 503.269 448.379 499.264C448.298 497.88 448.379 495.664 446.091 495.193C445.75 495.012 445.456 494.754 445.233 494.44C445.01 494.125 444.864 493.763 444.807 493.382C444.276 486.174 443.936 478.952 445.161 471.745Z" fill="#D51017"/>
  <path d="M372.98 500.552C373.293 499.942 373.54 499.3 373.718 498.638C375.806 497.593 374.795 495.76 374.795 494.221C374.795 489.259 374.478 484.297 375.002 479.342C374.419 476.854 375.297 474.189 374.264 471.774C367.954 472.428 361.868 474.472 356.447 477.759C348.218 482.883 343.635 490.407 342.321 499.971C341.937 502.761 342.808 503.858 345.782 503.747C351.192 503.549 356.617 503.747 362.019 503.681C365.872 503.637 370.227 504.675 372.596 501.163C372.703 500.947 372.832 500.743 372.98 500.552Z" fill="#D80D16"/>
  <path d="M391.926 236.418L402.996 236.499C404.524 238.097 404.472 240.136 404.472 242.124C404.524 249.95 404.576 257.783 404.472 265.609C404.362 273.169 403.848 274.185 396.253 274.355C395.498 274.3 394.606 274.315 393.822 274.355C392.073 274.443 390.309 274.774 388.619 274.001C387.733 266.396 389.519 258.983 390.206 251.474C390.619 246.467 390.457 241.314 391.926 236.418Z" fill="#C80018"/>
  <path d="M413.314 236.521L424.503 236.44C426.215 241.226 426.178 246.313 426.577 251.245C427.19 258.828 429.013 266.33 428.363 274.009C426.747 274.627 425.079 274.45 423.418 274.333C421.3 273.663 418.053 274.244 415.92 274.333C413.455 274.428 412.901 273.25 412.923 270.792C413.019 260.61 411.735 250.487 411.86 240.313C411.835 239.616 411.951 238.921 412.201 238.27C412.451 237.618 412.829 237.024 413.314 236.521Z" fill="#C60019"/>
  <path d="M375.6 499.183H375.799C381.703 499.102 387.563 498.248 393.409 498.027C393.018 497.372 392.221 497.247 391.387 497.099C389.468 496.753 389.032 495.428 389.172 493.661C389.911 485.173 389.047 484.01 380.441 484.29C376.53 484.422 374.618 483.421 374.994 479.357C373.223 485.696 373.459 492.174 373.71 498.645C374.299 498.946 374.941 499.129 375.6 499.183Z" fill="#EAEAE1"/>
  <path d="M446.091 495.207C446.386 487.367 444.268 479.622 445.161 471.759C444.812 468.986 444.467 466.211 444.128 463.433C444.084 468.351 443.678 473.291 444.076 478.157C444.475 483.023 442.947 484.827 438.009 484.275C435.234 483.966 431.684 484.518 432.039 488.258C432.666 494.883 429.514 497.828 423.595 498.925C425.161 499.878 426.932 500.443 428.762 500.574C432.228 500.552 435.685 500.227 439.094 499.602C439.183 499.514 439.279 499.418 439.367 499.315C442.002 498.557 446.637 501.075 446.091 495.207Z" fill="#EAEAE1"/>
  <path d="M430.348 295.314C430.23 290.279 429.418 285.251 430.216 280.208C436.423 281.68 439.7 286.892 443.22 291.251C445.191 293.717 441.375 294.453 439.53 294.696C436.482 295.101 433.352 294.232 430.348 295.314Z" fill="#C4301F"/>
  <path d="M387.047 280.716C387.623 285.133 387.047 289.616 386.943 294.07C383.416 295.749 379.718 294.88 376.116 294.6C374.736 294.49 373.075 293.57 373.629 291.479C374.308 288.895 384.198 280.995 387.047 280.716Z" fill="#C00E1A"/>
  <path d="M418.946 381.361C425.108 381.28 431.271 381.229 437.397 381.089C438.873 381.089 440.556 381.766 441.537 379.977C441.921 381.649 446.357 383.128 441.774 385.028C437.633 384.976 432.917 383.666 429.507 385.204C425.677 386.92 423.005 385.845 419.831 384.858C419.532 384.788 419.229 384.737 418.923 384.704C416.68 383.592 417.713 382.48 418.946 381.361Z" fill="#AB3021"/>
  <path d="M376.921 380.986L398.324 381.28C399.638 382.186 401.897 382.849 399.217 384.763L394.73 385.087C394.204 385.473 393.566 385.678 392.913 385.668C392.26 385.659 391.628 385.437 391.114 385.035H376.795C373.541 383.614 374.707 382.289 376.921 380.986Z" fill="#B12C1D"/>
  <path d="M416.163 195.515C410.658 195.953 405.126 195.938 399.623 195.471C399.513 191.171 401.225 187.373 403.107 183.692C405.454 179.157 409.705 179.061 412.421 183.419C414.694 187.063 416.569 190.973 416.163 195.515Z" fill="#BA1819"/>
  <path d="M412.392 499.492C412.274 501.141 412.2 502.79 412.015 504.432C412.011 504.967 411.806 505.482 411.439 505.873C411.073 506.264 410.573 506.504 410.037 506.545C408.613 506.67 408.296 505.603 408.104 504.535C407.786 502.768 407.521 500.994 407.225 499.227C408.332 490.503 407.425 481.742 407.653 473.004C407.698 471.296 407.07 468.667 409.668 468.586C412.576 468.513 412.067 471.251 412.097 473.151C412.237 481.948 412.303 490.724 412.392 499.492Z" fill="#CB271E"/>
  <path d="M399.254 384.763C400.472 383.217 399.173 382.311 398.361 381.28L418.946 381.361C418.776 382.473 418.045 383.57 418.946 384.704L399.254 384.763Z" fill="#D0664F"/>
  <path d="M391.15 385.035L394.767 385.087C394.664 386.331 395.416 388.149 393.387 388.304C391.143 388.48 391.682 386.346 391.15 385.035Z" fill="#817663"/>
  <path d="M413.314 236.521C413.617 247.704 414.001 258.895 414.163 270.085C414.207 273.03 413.241 274.399 415.92 274.333C417.691 274.274 421.4 273.596 423.418 274.333H393.837C395.046 274.333 396.728 274.399 397.651 274.333C403.828 274.06 402.908 273.096 402.952 267.03C403.04 256.833 403.011 246.637 403.033 236.448L413.314 236.521Z" fill="#DD4F41"/>
  <path d="M406.509 286.038C406.509 283.896 406.509 281.761 406.509 279.619C406.509 278.455 406.849 277.52 408.273 277.41C409.698 277.3 410.842 277.822 410.886 279.302C411.034 283.881 411.07 288.468 411.034 293.047C411.034 294.335 410.008 294.799 408.76 294.733C407.284 294.659 406.546 293.945 406.546 292.436C406.546 290.293 406.546 288.159 406.546 286.016L406.509 286.038Z" fill="#727062"/>
  <path d="M407.439 194.654C405.661 194.006 402.089 196.369 401.779 191.93C401.557 188.794 405.594 181.895 407.543 181.763C410.023 181.586 414.229 187.498 414.185 191.098C414.148 194.264 413.536 194.602 407.439 194.654Z" fill="#BA1819"/>
  <path d="M375.445 499.956C385.263 501.095 395.169 501.297 405.026 500.56C405.512 500.55 405.976 500.353 406.32 500.01C406.664 499.667 406.862 499.204 406.871 498.719C406.867 498.232 406.672 497.766 406.326 497.422C405.981 497.078 405.514 496.882 405.026 496.879C395.169 497.616 385.263 497.414 375.445 496.275C374.956 496.277 374.488 496.471 374.142 496.816C373.797 497.161 373.602 497.628 373.6 498.115C373.613 498.599 373.811 499.06 374.154 499.402C374.498 499.745 374.96 499.943 375.445 499.956Z" fill="#EAEAE1"/>
  <path d="M414.229 500.324C419.964 500.839 425.728 501.023 431.485 501.06C434.334 501.06 437.183 501.06 440.032 501.06C441.508 501.06 442.984 501.001 444.113 500.052C444.624 499.644 445.01 499.101 445.228 498.486C445.446 497.871 445.487 497.207 445.346 496.569C445.211 496.101 444.898 495.704 444.472 495.464C444.047 495.224 443.544 495.161 443.073 495.288C442.608 495.427 442.215 495.74 441.975 496.161C441.736 496.582 441.669 497.079 441.788 497.548C441.759 497.494 441.747 497.431 441.753 497.37C441.76 497.308 441.785 497.25 441.825 497.202C441.906 497.085 441.899 497.085 441.788 497.202C441.855 497.202 441.501 497.313 441.501 497.313C441.014 497.405 440.517 497.428 440.024 497.379H436.386C433.899 497.379 431.419 497.379 428.931 497.32C424.023 497.239 419.115 497.04 414.222 496.584C413.734 496.588 413.267 496.783 412.922 497.127C412.576 497.472 412.381 497.938 412.377 498.425C412.386 498.91 412.584 499.372 412.928 499.716C413.272 500.059 413.736 500.256 414.222 500.265L414.229 500.324Z" fill="#EAEAE1"/>
  <path d="M391.195 388.849L396.147 388.635C396.636 388.626 397.104 388.431 397.454 388.09C397.71 387.832 397.884 387.505 397.954 387.149C398.024 386.792 397.987 386.424 397.847 386.088C397.707 385.753 397.472 385.467 397.169 385.265C396.867 385.063 396.511 384.955 396.147 384.954L391.195 385.168C390.707 385.174 390.239 385.366 389.889 385.705C389.63 385.962 389.454 386.291 389.382 386.648C389.311 387.006 389.347 387.376 389.487 387.713C389.627 388.05 389.864 388.337 390.168 388.539C390.472 388.742 390.829 388.849 391.195 388.849Z" fill="#EAEAE1"/>
  <path d="M419.536 388.355C422.208 388.355 424.879 388.458 427.551 388.451C428.762 388.451 429.943 388.274 431.146 388.171C431.95 388.105 433.013 388.002 433.618 388.503C433.971 388.837 434.438 389.023 434.924 389.023C435.411 389.023 435.878 388.837 436.231 388.503C436.572 388.154 436.764 387.687 436.764 387.199C436.764 386.712 436.572 386.244 436.231 385.896C435.137 384.984 433.767 384.465 432.341 384.424C431.02 384.365 429.706 384.674 428.393 384.726C425.44 384.836 422.488 384.682 419.536 384.645C417.167 384.645 417.159 388.326 419.536 388.326V388.355Z" fill="#EAEAE1"/>
  <path d="M377.511 489.944C376.876 485.821 377.762 481.624 377.939 477.502C378.028 475.47 377.829 473.438 377.88 471.399C377.9 470.43 378.031 469.466 378.271 468.527C378.397 468.049 378.537 467.57 378.685 467.099C378.774 466.896 378.841 466.684 378.884 466.466C378.936 465.921 379.622 466.591 378.294 466.591C380.67 466.591 380.677 462.91 378.294 462.91C375.644 462.91 375.002 466.15 374.559 468.196C374.013 470.707 374.264 473.21 374.286 475.75C374.286 480.844 373.171 485.828 373.954 490.923C374.088 491.391 374.402 491.788 374.827 492.028C375.253 492.268 375.755 492.331 376.227 492.204C376.692 492.065 377.085 491.752 377.324 491.331C377.564 490.91 377.631 490.413 377.511 489.944Z" fill="#EAEAE1"/>
  <path d="M378.124 470.272C378.124 463.013 378.198 455.688 379.984 448.606C380.567 446.309 377.032 445.33 376.426 447.627C374.559 454.989 374.47 462.689 374.434 470.272C374.434 472.643 378.124 472.65 378.124 470.272Z" fill="#EAEAE1"/>
  <path d="M439.478 317.143C439.571 313.962 439.415 310.78 439.013 307.624C438.799 305.989 438.6 304.443 437.441 303.162C436.417 302.197 435.181 301.484 433.832 301.079C433.361 300.952 432.858 301.015 432.432 301.255C432.007 301.494 431.693 301.891 431.559 302.36C431.44 302.831 431.507 303.33 431.748 303.752C431.989 304.175 432.384 304.488 432.851 304.627C433.604 304.852 434.292 305.253 434.858 305.798C435.412 306.637 435.382 308.006 435.478 309C435.762 311.705 435.866 314.425 435.788 317.143C435.788 317.631 435.982 318.099 436.328 318.444C436.674 318.789 437.144 318.983 437.633 318.983C438.123 318.983 438.592 318.789 438.938 318.444C439.284 318.099 439.478 317.631 439.478 317.143Z" fill="#EAEAE1"/>
  <path d="M438.784 305.974C438.74 304.551 438.157 303.196 437.153 302.183C436.364 301.255 435.485 300.379 434.614 299.533C434.11 299.052 433.567 298.614 432.991 298.222L432.253 297.736L431.884 297.486C431.78 297.413 431.588 297.243 431.788 297.413C431.335 297.042 430.913 296.636 430.526 296.198L430.26 295.874C430.422 296.08 430.26 295.874 430.194 295.778C430.018 295.541 429.856 295.296 429.706 295.042C429.584 294.833 429.422 294.65 429.229 294.504C429.036 294.358 428.816 294.251 428.582 294.189C428.348 294.128 428.103 294.113 427.863 294.145C427.623 294.178 427.392 294.258 427.182 294.379C426.973 294.501 426.79 294.663 426.643 294.855C426.496 295.048 426.389 295.267 426.327 295.501C426.266 295.735 426.251 295.978 426.283 296.218C426.316 296.458 426.396 296.688 426.518 296.897C427.11 297.929 427.857 298.865 428.732 299.673C429.198 300.097 429.691 300.49 430.208 300.851L430.946 301.344L431.308 301.594C431.566 301.749 431.013 301.329 431.433 301.682C432.312 302.419 433.094 303.324 433.899 304.156C434.09 304.355 434.275 304.554 434.452 304.76C434.452 304.76 434.762 305.135 434.622 304.951C434.482 304.767 434.769 305.172 434.762 305.165L434.932 305.437C435.168 305.82 434.932 305.268 434.932 305.503C434.932 305.739 435.013 305.746 435.043 305.871C434.961 305.562 435.043 305.827 435.043 306.011C435.048 306.498 435.245 306.962 435.589 307.306C435.934 307.65 436.4 307.846 436.888 307.852C437.374 307.842 437.838 307.645 438.182 307.302C438.526 306.959 438.723 306.496 438.733 306.011L438.784 305.974Z" fill="#EAEAE1"/>
  <path d="M431.625 297.037C429.791 293.058 428.818 288.739 428.769 284.36C428.769 281.996 425.079 281.989 425.079 284.36C425.156 289.386 426.301 294.339 428.437 298.892C428.686 299.311 429.091 299.615 429.563 299.739C430.035 299.863 430.537 299.797 430.961 299.555C431.375 299.301 431.675 298.898 431.799 298.429C431.923 297.96 431.861 297.461 431.625 297.037Z" fill="#EAEAE1"/>
  <path d="M425.95 277.005C427.514 280.127 426.629 283.955 426.193 287.246C425.645 291.304 425.568 295.412 425.964 299.489C425.977 299.973 426.176 300.433 426.519 300.776C426.863 301.118 427.324 301.316 427.81 301.329C428.298 301.327 428.767 301.133 429.112 300.788C429.458 300.443 429.653 299.976 429.655 299.489C429.252 295.261 429.349 291.001 429.943 286.797C430.496 282.843 430.998 278.853 429.138 275.15C428.068 273.03 424.887 274.892 425.95 277.005Z" fill="#EAEAE1"/>
  <path d="M387.859 275.216C385.689 278.161 386.626 282.401 387.062 285.736C387.554 289.746 388.262 293.727 389.187 297.678C389.711 299.989 393.276 299.01 392.745 296.698C391.933 293.172 391.268 289.609 390.789 286.024C390.56 284.352 390.339 282.659 390.243 280.973C390.154 279.574 390.184 278.242 391.047 277.079C391.29 276.656 391.356 276.155 391.232 275.684C391.108 275.213 390.803 274.81 390.383 274.561C389.959 274.324 389.459 274.259 388.988 274.382C388.518 274.504 388.113 274.803 387.859 275.216Z" fill="#EAEAE1"/>
  </g>
  <defs>
  <clipPath id="clip0_73_52">
  <rect width="1101" height="867" fill="white"/>
  </clipPath>
  </defs>
  </svg>
  