<svg width="444" height="370" viewBox="0 0 444 370" fill="none" xmlns="http://www.w3.org/2000/svg">
  <g opacity="0.6">
  <path d="M220.947 334.008C323.578 334.008 406.778 326.065 406.778 316.267C406.778 306.469 323.578 298.526 220.947 298.526C118.315 298.526 35.1162 306.469 35.1162 316.267C35.1162 326.065 118.315 334.008 220.947 334.008Z" fill="#F4E5A5"/>
  <path d="M227.321 124.376C230.181 121.7 233.683 119.985 236.912 117.858C250.684 108.847 264.547 99.9824 278.363 91.0405C289.707 83.7077 301.042 76.3492 312.368 68.9648C320.11 63.9459 327.854 58.9338 335.598 53.9285C345.226 47.7282 354.853 41.5307 364.481 35.3358C366.45 34.0689 368.448 32.8467 370.434 31.6042C371.385 31.6735 371.75 32.4557 372.147 33.1319C374.83 37.719 377.47 42.3386 380.142 46.9338C380.511 47.5734 380.848 48.2456 380.679 49.04C380.31 49.9118 379.52 50.3191 378.782 50.7713C366.386 58.3689 353.798 65.6284 341.339 73.1159C339.734 74.0855 338.13 75.0469 336.79 76.3994C336.068 76.4687 335.755 75.8902 335.346 75.4624C332.818 72.8145 330.58 72.3867 327.19 73.78C322.168 75.8494 317.422 78.5137 312.54 80.8805C305.853 84.1396 299.134 87.3334 292.531 90.7635C291.079 91.5131 289.723 92.3645 288.869 93.8229C287.834 95.6113 287.557 97.4486 288.375 99.461C290.493 104.675 293.346 109.531 295.492 114.734C295.849 115.597 296.406 116.416 296.114 117.439C294.605 119.39 292.271 120.07 290.257 121.174C274.775 129.672 259.272 138.133 243.748 146.558C242.545 147.214 241.341 148.187 239.865 147.116C237.667 144.057 236.03 140.651 234.104 137.424C232.002 133.901 230.013 130.312 227.959 126.763C227.554 126.059 226.86 125.362 227.321 124.376Z" fill="#E0E3E5"/>
  <path d="M380.458 49.0279L370.43 31.6166C371.846 29.8567 373.863 28.9035 375.645 27.6569C381.521 23.5505 387.446 19.5094 393.355 15.46C393.563 15.3538 393.748 15.2065 393.899 15.0267C394.049 14.8469 394.163 14.6383 394.234 14.4131C395.16 14.4131 395.393 15.2278 395.758 15.8267C402.578 27.2332 409.116 38.7905 415.835 50.25C416.353 51.1381 417.143 52.0262 416.565 53.2239C409.345 56.8618 402.124 60.5363 394.863 64.109C392.308 65.3637 389.945 67.0788 387.085 67.645C387.076 67.3731 387.169 67.1077 387.346 66.9036C389.075 64.94 389.087 64.9319 387.715 62.6302C385.585 59.0494 383.567 55.4033 381.425 51.8266C380.932 50.9711 380.342 50.1074 380.458 49.0279Z" fill="#BA1819"/>
  <path d="M416.585 53.2239C414.672 49.1501 412.053 45.4837 409.947 41.5444C408.017 37.9309 405.811 34.4967 403.773 30.9526L396.332 18.0795C395.63 16.8573 394.936 15.6352 394.238 14.4131C392.894 10.9992 393.628 8.55499 396.733 6.63624C400.151 4.5301 403.653 2.56247 407.054 0.431893C408.181 -0.272869 408.659 -0.138434 409.341 1.02259C416.313 13.2004 423.315 25.3566 430.349 37.491C432.102 40.53 433.819 43.6016 435.636 46.5877C436.25 47.598 436.314 48.1561 435.175 48.812C431.52 50.91 427.954 53.1709 424.304 55.2689C421.604 56.8291 418.996 56.0796 416.585 53.2239Z" fill="#9E1516"/>
  <path d="M380.458 49.0278C383.544 54.2857 386.635 59.5449 389.729 64.8055C390.158 65.5307 390.182 65.9666 389.328 66.3536C388.562 66.7441 387.817 67.1765 387.097 67.649C383.679 69.2114 380.373 71.0165 377.205 73.0508C373.254 74.6804 369.712 77.1246 365.953 79.1045C359.238 82.6975 352.607 86.4006 345.908 90.0303C345.21 90.4092 344.452 90.6699 343.721 90.9836C342.919 90.9102 342.65 90.2544 342.366 89.6515C340.669 86.0543 338.832 82.5346 337.151 78.9334C336.75 78.1186 336.22 77.2468 336.794 76.2651C336.645 75.1611 337.432 74.7129 338.182 74.2607C342.88 71.4444 347.579 68.6349 352.278 65.8321C356.923 63.0701 361.588 60.3448 366.23 57.5746C370.975 54.7515 375.713 51.8835 380.458 49.0278Z" fill="white"/>
  <path d="M360.863 317.477C360.096 312.935 358.989 308.474 357.922 304.001C356.955 303.031 356.783 301.736 356.514 300.477C352.406 281.466 348.312 262.455 344.231 243.444C338.334 216.226 332.469 189.003 326.637 161.773C326.416 160.747 325.943 159.659 326.853 158.69C329.501 157.859 332.364 158.119 334.824 159.415C337.087 170.072 339.329 180.733 341.62 191.386C347.992 221.026 354.379 250.667 360.778 280.308C362.546 288.51 364.33 296.709 366.13 304.905C368.031 308.604 369.022 312.499 368.625 316.699C368.452 316.908 368.206 317.041 367.939 317.07C365.56 316.903 363.213 317.2 360.863 317.477Z" fill="#6F6F6F"/>
  <path d="M336.782 76.2772C339.098 81.182 341.41 86.0882 343.718 90.9957C344.845 93.44 344.845 93.44 342.394 94.6621C338.382 96.6461 334.371 98.6055 330.359 100.598C329.722 100.915 328.959 101.082 328.578 101.82C327.619 101.852 327.439 101.005 327.102 100.406C323.143 93.2363 315.288 92.8534 309.756 97.583C307.438 99.5669 306.591 102.472 306.579 105.616C306.579 108.097 306.872 110.631 305.777 112.994C303.242 115.031 300.201 116.143 297.353 117.573C296.9 117.801 296.31 117.944 295.929 117.329C293.49 112.143 291.071 106.945 288.608 101.775C285.892 96.0717 287.056 92.6497 292.648 89.9162C303.816 84.4465 314.982 78.9686 326.147 73.4826C330.833 71.1769 333.849 71.9876 336.782 76.2772Z" fill="#BA1819"/>
  <path d="M328.707 123.904C325.369 121.028 321.586 119.366 317.138 119.524C316.702 119.939 316.13 120.174 315.533 120.184C312.216 120.278 309.428 121.7 306.876 123.716C306.142 124.295 305.46 124.894 304.911 123.537C304.457 120.616 304.746 117.683 304.726 114.754C304.738 114.418 304.815 114.087 304.953 113.781C305.09 113.475 305.286 113.199 305.528 112.97C306.251 109.442 305.48 105.812 306.299 102.288C307.446 97.3427 311.538 94.3689 316.239 93.8515C322.369 93.1753 326.316 96.2347 328.622 101.812C329.71 105.27 329.084 108.814 329.076 112.318C329.04 116.18 328.827 120.042 328.707 123.904Z" fill="#515151"/>
  <path d="M198.23 163.965C200.677 159.891 200.28 155.765 198.418 151.609C198.217 151.045 198.061 150.464 197.953 149.874L218.544 135.762C219.627 135.636 219.992 136.557 220.497 137.205C223.021 140.435 224.212 144.448 226.515 147.796C226.729 148.1 226.862 148.455 226.902 148.827C226.942 149.199 226.888 149.575 226.743 149.919C226.258 150.799 225.379 151.141 224.561 151.577C216.707 155.583 208.844 159.568 200.974 163.533C200.135 163.957 199.277 164.719 198.23 163.965Z" fill="#9E1516"/>
  <path d="M226.491 149.915C226.374 149.467 226.37 148.937 226.122 148.583C223.314 144.472 221.898 139.49 218.46 135.762C218.183 134.345 217.256 133.249 216.623 132.01C216.322 131.432 215.82 130.862 216.787 130.357C220.349 128.458 223.562 125.924 227.317 124.376L240.286 146.839C240.495 147.829 239.857 148.342 239.171 148.79C236.531 150.518 233.772 152.049 231.072 153.65C229.748 154.445 228.665 154.172 227.863 152.811C227.321 151.89 226.603 151.047 226.491 149.915Z" fill="#BA1819"/>
  <path d="M185.558 164.193C184.422 161.517 182.818 159.113 181.366 156.62C180.965 155.907 180.624 155.329 181.574 154.836C183.58 153.659 185.674 152.604 187.571 151.263C189.176 150.135 190.159 150.07 190.957 152.078C191.306 152.962 191.759 154.27 193.2 153.198C194.068 154.707 194.79 156.298 195.358 157.948C194.604 157.859 194.03 157.749 193.452 157.736C192.987 157.736 192.393 157.04 192.072 157.818C191.808 158.453 192.233 158.979 192.738 159.374C194.949 161.089 195.245 162.731 193.765 165.175C192.542 167.212 191.298 169.2 190.067 171.217C189.998 171.265 189.921 171.3 189.839 171.317C189.758 171.335 189.673 171.335 189.591 171.318C189.509 171.301 189.432 171.268 189.363 171.22C189.295 171.171 189.236 171.109 189.192 171.037C187.704 168.903 186.019 166.878 185.558 164.193Z" fill="#1E3574"/>
  <path d="M233.832 277.831C235.26 276.784 235.625 275.045 236.443 273.611C237.606 271.574 238.617 269.427 239.692 267.329C239.821 265.524 240.848 264.07 241.574 262.526C243.134 259.625 244.59 256.668 246.123 253.751C248.606 249.27 251.041 244.752 253.343 240.173C253.913 239.045 254.338 237.774 255.626 237.199C260.006 228.97 264.386 220.74 268.763 212.508C277.966 195.127 287.152 177.745 296.322 160.364C296.655 159.733 297.718 158.942 296.242 158.327C299.475 158.832 302.744 158.4 305.982 158.735C306.503 159.928 305.729 160.841 305.252 161.753C301.088 169.713 296.89 177.654 292.66 185.577C287.429 195.411 282.215 205.25 277.019 215.095C271.804 224.941 266.537 234.755 261.443 244.667C258.418 250.191 255.425 255.727 252.617 261.369C250.848 264.266 249.456 267.366 247.804 270.331C246.969 271.843 246.259 273.427 245.345 274.898C243.519 278.536 241.498 282.072 239.728 285.738C238.593 287.515 237.606 289.376 236.62 291.238C235.931 292.835 235.126 294.378 234.213 295.854C233.884 296.428 233.591 297.076 232.829 297.182C229.981 302.575 227.131 307.97 224.28 313.367C224.125 313.497 223.939 313.584 223.741 313.619C223.542 313.654 223.339 313.636 223.149 313.566C221.242 312.949 219.227 312.757 217.24 313.004C217.008 313.043 216.77 313.017 216.552 312.929C216.333 312.84 216.143 312.693 216.001 312.503L223.643 297.793L231.06 283.636C231.197 281.407 232.193 279.321 233.832 277.831Z" fill="#6F6F6F"/>
  <path d="M322.818 159.048C322.529 170.303 322.242 181.56 321.955 192.82C321.53 211.336 321.105 229.852 320.68 248.366C320.68 249.246 320.704 250.126 320.72 251.005C321.189 251.645 321.213 252.382 321.197 253.132C321.093 257.255 321.117 261.377 321.161 265.5C321.205 270.364 320.977 275.2 319.958 279.974C319.797 286.899 319.404 293.825 319.529 300.75L318.999 317.453C318.876 317.566 318.725 317.644 318.562 317.677C318.398 317.711 318.23 317.7 318.072 317.644C316.327 316.996 314.431 316.895 312.629 317.355C312.434 317.406 312.23 317.402 312.037 317.343C311.845 317.284 311.672 317.173 311.538 317.021C311.385 311.448 311.538 305.879 311.762 300.318C310.936 299.459 311.301 298.339 311.125 297.34C310.812 289.93 311.746 282.553 311.602 275.151C311.325 270.417 312.003 265.72 312.075 260.998C312.086 260.615 312.073 260.231 312.035 259.85C311.762 257.276 311.78 254.679 312.087 252.109C312.239 250.696 312.301 249.274 312.272 247.852C312.156 238.711 312.649 229.577 312.801 220.444C312.894 215.038 312.721 209.604 313.138 204.214C313.6 198.258 313.114 192.29 313.539 186.359C313.973 180.533 313.68 174.72 313.88 168.903C313.973 166.271 314.39 163.652 314.282 161.004C314.258 160.629 314.318 160.253 314.457 159.905C314.596 159.556 314.81 159.244 315.084 158.991L322.818 159.048Z" fill="#6F6F6F"/>
  <path d="M286.606 299.1C286.606 298.693 286.606 298.257 286.606 297.837C287.938 296.648 289.595 297.295 291.087 297.022C292.692 297.226 294.296 297.002 295.925 297.137C300.59 297.022 305.252 297.108 309.917 297.088C310.587 297.088 311.253 297.088 311.818 297.556C311.802 298.485 311.788 299.415 311.774 300.347C304.035 300.056 296.299 299.764 288.568 299.471C287.907 299.393 287.251 299.269 286.606 299.1Z" fill="#FFF8DA"/>
  <path d="M197.684 164.662C199.02 165.265 199.197 166.752 199.967 167.786C200.368 168.34 199.883 168.601 199.454 168.842C198.306 169.489 197.295 170.39 195.992 170.748C196.559 168.719 197.123 166.691 197.684 164.662Z" fill="#1F2E66"/>
  <path d="M299.443 154.518C299.588 148.631 299.772 142.745 299.868 136.862C299.953 131.725 301.702 127.37 305.44 123.871C308.842 121.019 312.528 119.007 317.138 119.524C317.138 126.344 317.045 133.167 317.138 139.987C317.186 142.965 316.572 145.898 316.737 148.851C316.849 150.888 316.761 152.901 316.7 154.921C310.948 155.211 305.204 154.453 299.443 154.518Z" fill="#6F6F6F"/>
  <path d="M317.394 109.336C316.861 109.341 316.332 109.233 315.842 109.02C315.351 108.807 314.91 108.492 314.545 108.097C314.18 107.701 313.901 107.233 313.723 106.722C313.546 106.211 313.475 105.668 313.515 105.128C313.587 102.989 315.401 101.417 317.715 101.486C318.719 101.489 319.68 101.896 320.389 102.617C321.098 103.339 321.497 104.316 321.498 105.336C321.505 105.877 321.402 106.414 321.196 106.914C320.99 107.413 320.685 107.865 320.301 108.24C319.916 108.615 319.459 108.906 318.959 109.094C318.46 109.283 317.927 109.365 317.394 109.336Z" fill="#929292"/>
  <path d="M180.873 153.084C180.726 153.094 180.581 153.119 180.439 153.157C180.333 153.192 180.23 153.236 180.13 153.288L180.042 153.328C179.921 153.406 179.805 153.493 179.697 153.589C179.649 153.632 179.603 153.678 179.561 153.728C179.415 153.894 179.291 154.079 179.192 154.278C179.097 154.482 179.014 154.691 178.943 154.905C178.907 155.038 178.907 155.179 178.943 155.312C178.948 155.447 178.988 155.578 179.059 155.691L179.216 155.895C179.304 155.993 179.416 156.066 179.541 156.107C179.617 156.152 179.705 156.176 179.793 156.176C179.925 156.213 180.063 156.213 180.195 156.176L180.431 156.07C180.58 155.983 180.705 155.858 180.792 155.708C180.844 155.588 180.91 155.476 180.989 155.373L180.828 155.581C180.911 155.474 181.005 155.377 181.109 155.292L180.909 155.451C180.971 155.404 181.035 155.361 181.101 155.32C181.216 155.261 181.313 155.171 181.382 155.06C181.47 154.962 181.532 154.842 181.563 154.713C181.599 154.58 181.599 154.439 181.563 154.306C181.558 154.172 181.518 154.041 181.446 153.927C181.311 153.699 181.096 153.532 180.844 153.459L180.58 153.422C180.402 153.424 180.228 153.473 180.074 153.565C179.932 153.651 179.798 153.751 179.673 153.862C179.606 153.917 179.543 153.976 179.485 154.041C179.31 154.23 179.164 154.444 179.051 154.677L180.885 155.463C180.917 155.369 180.949 155.272 180.989 155.182L180.889 155.422C180.948 155.278 181.023 155.141 181.113 155.015L180.957 155.223C181.016 155.148 181.084 155.08 181.157 155.019L180.953 155.182C181.013 155.134 181.079 155.093 181.149 155.06L180.913 155.162C180.978 155.136 181.045 155.117 181.113 155.105L180.848 155.141H180.881C181.02 155.154 181.159 155.124 181.282 155.056C181.407 155.015 181.519 154.942 181.607 154.844C181.701 154.754 181.773 154.642 181.815 154.518C181.878 154.392 181.907 154.251 181.899 154.111L181.863 153.842C181.817 153.672 181.729 153.518 181.607 153.394L181.402 153.235C181.249 153.143 181.074 153.094 180.897 153.092L180.873 153.084Z" fill="#FFF8DA"/>
  <path d="M199.826 166.365L191.568 151.839C190.749 150.398 188.926 149.91 187.497 150.748L182.668 153.58C181.238 154.418 180.744 156.265 181.562 157.705L189.821 172.232C190.64 173.672 192.462 174.16 193.892 173.322L198.721 170.491C200.15 169.653 200.645 167.806 199.826 166.365Z" fill="#9E1516"/>
  <path d="M192.323 167.533L212.264 156.96L206.585 145.913L186.643 156.487L192.323 167.533Z" fill="#9E1516"/>
  <path d="M194.14 167.233L213.069 154.887L206.438 144.402L187.509 156.748L194.14 167.233Z" fill="#9E1516"/>
  <path d="M224.268 313.379L307.731 156.168" stroke="#343434" stroke-width="6" stroke-miterlimit="10"/>
  <path d="M214.789 314.083L298.256 156.877" stroke="#6F6F6F" stroke-width="6" stroke-miterlimit="10"/>
  <path d="M319.015 317.469L324.218 150.501" stroke="#393939" stroke-width="6" stroke-miterlimit="10"/>
  <path d="M310.864 318.565L316.067 151.601" stroke="#6F6F6F" stroke-width="6" stroke-miterlimit="10"/>
  <path d="M328.707 123.904C332.862 128.108 334.399 133.212 334.038 139.099C333.761 143.633 333.769 148.188 333.685 152.734C333.685 153.606 333.805 154.486 333.873 155.361C333.684 155.6 333.443 155.791 333.169 155.918C332.894 156.045 332.594 156.106 332.293 156.095C327.972 156.144 323.648 156.315 319.332 155.989C318.394 155.983 317.474 155.728 316.664 155.247C316.01 154.738 315.962 154.025 315.934 153.251C315.742 148.106 316.411 142.985 316.335 137.84C316.259 132.695 316.311 127.656 316.335 122.58C316.335 121.639 316.259 120.673 316.7 119.789C317.254 118.816 318.213 118.681 319.107 118.828C321.987 119.288 324.795 119.989 327.198 121.834C327.853 122.395 328.37 123.104 328.707 123.904Z" fill="#8B8F9A"/>
  <path d="M362.992 319.327L325.429 156.694" stroke="#6F6F6F" stroke-width="6" stroke-miterlimit="10"/>
  <path d="M316.712 154.921C322.421 155.618 328.153 155.211 333.873 155.357C334.564 155.709 335.226 156.118 335.851 156.579C336.565 157.195 337.151 158.103 336.778 159.024C336.465 159.802 335.482 159.231 334.824 159.411C332.08 159.574 329.381 158.718 326.629 159.064C325.469 160.103 324.106 159.765 322.778 159.659C320.178 159.944 317.563 159.761 314.975 159.623C311.931 159.953 308.922 159.215 305.89 159.264C302.704 159.264 299.471 159.94 296.378 158.681C295.075 157.899 295.516 156.881 296.11 155.956C296.952 154.648 298.252 154.046 299.756 153.879C301.392 153.538 303.075 153.495 304.726 153.752C307.719 154.16 310.707 154.062 313.7 154.074C314.769 154.008 315.829 154.306 316.712 154.921Z" fill="#373737"/>
  <path d="M310.634 314.246C313.66 313.099 316.639 312.906 319.498 314.77C321.104 316.412 322.395 318.232 322.486 320.704C322.534 321.945 322.338 322.717 320.851 322.682C316.753 322.564 312.65 322.618 308.552 322.272C307.322 322.163 307.179 321.535 307.212 320.502C307.303 317.772 309.076 316.105 310.634 314.246Z" fill="#9E1516"/>
  <path d="M361.071 312.695C364.097 311.547 367.076 311.355 369.935 313.219C371.541 314.861 372.832 316.68 372.923 319.153C372.971 320.394 372.775 321.166 371.288 321.131C367.19 321.012 363.087 321.067 358.989 320.721C357.759 320.612 357.616 319.984 357.649 318.95C357.74 316.221 359.513 314.554 361.071 312.695Z" fill="#9E1516"/>
  <path d="M214.345 310.368C217.371 309.22 220.349 309.027 223.209 310.892C224.815 312.533 226.106 314.353 226.197 316.826C226.244 318.067 226.049 318.838 224.562 318.804C220.464 318.685 216.361 318.74 212.262 318.393C211.033 318.285 210.89 317.657 210.923 316.623C211.014 313.893 212.786 312.227 214.345 310.368Z" fill="#9E1516"/>
  </g>
  </svg>
  