<svg width="234" height="95" viewBox="0 0 234 95" fill="none" xmlns="http://www.w3.org/2000/svg">
  <g clip-path="url(#clip0_134_2)">
  <g filter="url(#filter0_d_134_2)">
  <path d="M36.781 24.9998C36.781 30.0275 36.781 35.0553 36.781 40.0831C36.781 41.1942 37.1161 41.5664 38.2051 41.4831C39.2941 41.3998 40.2491 41.4831 41.2711 41.4831C42.0865 41.4498 42.4272 41.7164 42.4216 42.5942C42.3881 47.9498 42.3881 53.3016 42.4216 58.6498C42.4216 59.4831 42.1591 59.7609 41.3046 59.7609C31.9223 59.7609 22.5381 59.7609 13.152 59.7609C12.292 59.7609 11.9066 59.5276 11.9122 58.5887C11.9457 48.7609 11.7614 38.9331 12.0016 29.1109C12.2808 17.9331 21.6632 8.94977 33.0113 8.5831C36.7978 8.46088 36.7978 8.46088 36.7978 12.1442L36.781 24.9998Z" fill="#E8E8E8"/>
  </g>
  <g filter="url(#filter1_d_134_2)">
  <path d="M69.1781 80.322C66.7934 85.5442 62.7501 88.9942 57.4837 91.1553C54.3171 92.4497 51.0054 92.6553 47.6434 92.622C46.761 92.622 46.5264 92.2442 46.5655 91.4497C46.6046 89.3775 46.5655 87.2997 46.5655 85.222C46.5655 71.2053 46.5655 57.1831 46.5376 43.1664C46.5376 41.8386 46.8783 41.4609 48.213 41.4997C55.4061 41.5664 62.603 41.5664 69.8036 41.4997C71.088 41.4997 71.4455 41.8609 71.4287 43.1275C71.3338 48.6109 71.3449 54.0997 71.3114 59.5831C70.7976 60.3109 70.0102 60.1886 69.2842 60.1942C64.2244 60.1942 59.1702 60.1942 54.1105 60.1942C53.6246 60.1942 53.0941 60.0442 52.5747 60.4386C53.7102 62.0066 54.9569 63.4919 56.3053 64.8831C60.2704 69.3886 64.1239 73.9608 68.1784 78.4053C68.7012 78.9272 69.0502 79.5963 69.1781 80.322Z" fill="#E8E8E8"/>
  </g>
  <g filter="url(#filter2_d_134_2)">
  <path d="M110.399 8.46663C110.751 8.87219 110.605 9.34997 110.605 9.79441C110.605 19.2055 110.605 28.6111 110.639 38.0222C110.639 39.3666 110.259 39.8389 108.919 39.6889C107.854 39.5972 106.783 39.5972 105.719 39.6889C104.574 39.7777 104.306 39.3 104.323 38.25C104.378 34.9777 104.323 31.7 104.323 28.4222C104.344 27.9194 104.229 27.4201 103.987 26.9777C101.195 30.9944 98.4028 35.0055 95.4764 39.2C92.5723 35.0444 89.78 31.0444 86.9653 26.9777C86.4459 27.4333 86.6413 27.9222 86.6358 28.3389C86.6358 31.6166 86.5687 34.8944 86.6358 38.1666C86.6693 39.4222 86.2337 39.7889 85.0385 39.6889C83.9232 39.605 82.803 39.605 81.6877 39.6889C80.5987 39.7611 80.2524 39.3889 80.2636 38.2833C80.3139 33.0277 80.2636 27.7666 80.2636 22.5111C80.2636 18.3111 80.2636 14.1166 80.2636 9.91663C80.1579 9.39693 80.2306 8.85695 80.4702 8.3833C81.1292 8.66108 81.375 9.28886 81.738 9.77775C86.027 15.6277 90.3273 21.4722 94.5549 27.3722C95.3479 28.4833 95.6718 28.25 96.3197 27.3111C100.659 21.2666 105.06 15.2666 109.444 9.25552C109.757 8.95552 109.885 8.50552 110.399 8.46663Z" fill="#E8E8E8"/>
  </g>
  <g filter="url(#filter3_d_134_2)">
  <path d="M189.261 62.0445C188.978 62.5518 188.878 63.1396 188.976 63.7112C188.976 67.3556 188.942 71.0001 188.976 74.6445C188.976 75.5612 188.758 76.0056 187.736 75.9501C186.44 75.8779 185.139 75.9001 183.827 75.9501C183.039 75.9501 182.643 75.7778 182.643 74.8834C182.643 65.3834 182.643 55.8834 182.643 46.3834C182.643 45.5945 182.95 45.3334 183.715 45.339C187.099 45.3834 190.495 45.3001 193.879 45.4445C198.191 45.6223 201.988 48.9112 202.988 53.1334C203.988 57.3556 202.245 61.189 198.347 63.4223C197.431 63.9445 197.911 64.3001 198.258 64.7778C200.641 68.0741 203.02 71.3723 205.395 74.6723C205.618 74.989 206.11 75.3112 205.892 75.7278C205.674 76.1445 205.132 75.9278 204.742 75.9334C203.116 75.9334 201.486 75.889 199.866 75.9334C199.479 75.9671 199.09 75.8853 198.75 75.6982C198.41 75.5112 198.133 75.2275 197.956 74.8834C195.398 71.0334 192.801 67.2167 190.216 63.389C189.931 63.0001 189.64 62.5945 189.261 62.0445Z" fill="#E8E8E8"/>
  </g>
  <g filter="url(#filter4_d_134_2)">
  <path d="M126.008 56.6663C125.908 59.4441 126.354 62.9552 125.841 66.3775C124.875 72.7497 119.636 77.0274 113.655 76.5941C106.858 76.0997 102.262 71.433 102.156 64.7219C102.061 58.6775 102.156 52.633 102.117 46.5886C102.117 45.6386 102.413 45.2552 103.396 45.3052C104.647 45.3775 105.902 45.3775 107.154 45.3052C108.215 45.2386 108.489 45.6497 108.483 46.6608C108.444 52.6163 108.483 58.5663 108.483 64.5163C108.418 65.8275 108.819 67.1198 109.616 68.1661C110.413 69.2125 111.555 69.946 112.842 70.2378C114.128 70.5296 115.477 70.3611 116.651 69.7618C117.825 69.1624 118.75 68.1707 119.262 66.9608C119.62 66.1095 119.775 65.1872 119.714 64.2663C119.714 58.4941 119.714 52.7275 119.714 46.9608C119.714 45.7386 119.977 45.1719 121.323 45.2941C122.483 45.3802 123.648 45.3802 124.808 45.2941C125.79 45.2386 126.081 45.6275 126.064 46.5775C125.98 49.7552 126.008 52.8941 126.008 56.6663Z" fill="#E8E8E8"/>
  </g>
  <g filter="url(#filter5_d_134_2)">
  <path d="M153.82 56.2553C153.82 53.0719 153.848 49.8886 153.82 46.7053C153.82 45.7108 154.077 45.2664 155.149 45.3275C156.354 45.4025 157.563 45.4025 158.768 45.3275C159.852 45.2553 160.086 45.6997 160.081 46.6941C160.041 52.6441 160.081 58.5941 160.081 64.5441C160.045 65.8471 160.461 67.1225 161.258 68.157C162.055 69.1916 163.185 69.9225 164.459 70.2275C166.967 70.8497 169.513 69.5886 170.809 67.1164C171.199 66.2773 171.377 65.3562 171.328 64.433C171.328 58.6219 171.429 52.8108 171.384 46.9997C171.384 45.633 171.82 45.2108 173.138 45.333C174.296 45.3997 175.458 45.3997 176.617 45.333C177.404 45.333 177.656 45.633 177.656 46.3941C177.628 52.8053 177.762 59.2219 177.594 65.6275C177.432 71.7386 172.116 76.5553 165.822 76.633C159.528 76.7108 154.25 71.9441 153.932 65.7941C153.764 62.6164 153.898 59.4275 153.898 56.2497L153.82 56.2553Z" fill="#E8E8E8"/>
  </g>
  <g filter="url(#filter6_d_134_2)">
  <path d="M80.3308 60.5554C80.3308 55.8943 80.3308 51.2332 80.3308 46.5777C80.3308 45.5721 80.5821 45.2054 81.6488 45.2166C87.038 45.261 92.4217 45.2499 97.811 45.2166C98.6878 45.2166 99.0787 45.4443 99.0284 46.3832C98.9475 47.5819 98.9475 48.7846 99.0284 49.9832C99.1122 51.0943 98.7715 51.511 97.5764 51.4832C94.421 51.4054 91.2601 51.4832 88.0824 51.4388C87.0269 51.4388 86.541 51.6888 86.6248 52.8277C86.6974 54.0247 86.6974 55.2251 86.6248 56.4221C86.5857 57.3277 86.9319 57.6277 87.8366 57.611C90.5285 57.5666 93.2259 57.611 95.9177 57.5777C96.9509 57.5777 97.3363 57.861 97.2693 58.9054C97.205 60.1491 97.205 61.3952 97.2693 62.6388C97.3083 63.5055 96.9509 63.7499 96.1523 63.7499C93.4102 63.711 90.6737 63.7499 87.9316 63.7166C86.9543 63.7166 86.6415 64.0166 86.6583 64.9777C86.6974 68.2555 86.6583 71.5277 86.6583 74.8055C86.6583 75.7499 86.379 76.1499 85.3849 76.0943C84.134 76.0277 82.8774 76.0221 81.6264 76.0943C80.5821 76.1332 80.3028 75.6999 80.3084 74.6943C80.3587 69.9555 80.3308 65.2499 80.3308 60.5554Z" fill="#E8E8E8"/>
  </g>
  <g filter="url(#filter7_d_134_2)">
  <path d="M58.9691 24.6721C55.205 24.6721 51.4409 24.6721 47.6768 24.6721C46.7385 24.6721 46.5598 24.4832 46.7218 23.511C47.7941 17.911 51.0946 14.0665 56.1209 11.5832C60.6613 9.31655 65.5479 8.65543 70.5295 8.37766C71.222 8.33877 71.4007 8.61099 71.3951 9.24432C71.3951 14.0943 71.3951 18.9388 71.3951 23.7832C71.3951 24.7332 70.8757 24.661 70.2782 24.6554L58.9691 24.6721Z" fill="#D2B13C"/>
  </g>
  <g filter="url(#filter8_d_134_2)">
  <path d="M126.433 19.4109C128.052 16.3498 129.672 13.3998 131.185 10.3942C131.665 9.44978 132.207 8.99422 133.318 9.072C134.756 9.14978 136.198 9.14978 137.635 9.072C138.697 9.03311 138.814 9.32756 138.317 10.222C135.524 15.272 132.771 20.3498 129.979 25.3998C129.559 26.1217 129.345 26.9437 129.359 27.7776C129.392 31.3276 129.359 34.8831 129.392 38.4331C129.392 39.3831 129.13 39.7664 128.141 39.7109C126.888 39.647 125.631 39.647 124.377 39.7109C123.439 39.7553 123.199 39.3609 123.21 38.4942C123.244 34.9387 123.21 31.3887 123.21 27.8331C123.222 27.0566 123.03 26.2904 122.652 25.6109C119.863 20.5516 117.093 15.4868 114.342 10.4164C113.643 9.13867 113.649 9.12756 115.14 9.122C116.492 9.122 117.843 9.18311 119.184 9.122C119.635 9.04818 120.098 9.13386 120.493 9.36419C120.888 9.59453 121.189 9.95499 121.345 10.3831C122.652 13.0276 124.081 15.6164 125.478 18.222C125.663 18.708 125.997 19.1238 126.433 19.4109Z" fill="#E8E8E8"/>
  </g>
  <g filter="url(#filter9_d_134_2)">
  <path d="M143.025 63.8554C143.025 67.4499 142.98 71.0777 143.025 74.6443C143.025 75.8332 142.584 76.0388 141.545 75.9221C140.218 75.7605 138.999 75.1169 138.12 74.115C137.242 73.1131 136.767 71.8236 136.787 70.4943C136.759 64.7777 136.787 59.061 136.787 53.3388C136.787 51.4999 136.787 51.4999 134.871 51.4943C133.341 51.4943 131.805 51.4943 130.275 51.4943C129.454 51.5221 129.091 51.2721 129.124 50.3832C129.18 49.0499 129.169 47.711 129.124 46.3721C129.097 45.5721 129.448 45.3388 130.202 45.3443C136.658 45.3443 143.114 45.3443 149.57 45.3443C150.268 45.3443 150.575 45.5777 150.553 46.3054C150.519 47.6888 150.514 49.0832 150.553 50.4554C150.581 51.2554 150.251 51.4943 149.486 51.4777C147.811 51.4443 146.135 51.5332 144.46 51.4443C143.343 51.3888 142.935 51.711 142.958 52.8943C143.069 56.5666 143.025 60.211 143.025 63.8554Z" fill="#E8E8E8"/>
  </g>
  <g filter="url(#filter10_d_134_2)">
  <path d="M218.419 75.9387C215.727 75.9387 213.035 75.9387 210.338 75.9387C209.517 75.9387 209.176 75.6942 209.181 74.8276C209.208 69.3387 209.208 63.8498 209.181 58.3609C209.181 57.572 209.483 57.3275 210.254 57.3331C215.179 57.3553 220.103 57.3553 225.025 57.3331C225.924 57.3331 226.142 57.7109 226.098 58.4998C226.059 59.7442 226.036 60.9942 226.098 62.2331C226.148 63.1998 225.802 63.5331 224.83 63.5164C222.183 63.4664 219.536 63.5164 216.888 63.4775C215.816 63.4775 215.369 63.7498 215.453 64.872C215.542 66.024 215.542 67.1811 215.453 68.3331C215.369 69.4442 215.721 69.8553 216.916 69.8275C220.072 69.7498 223.233 69.8275 226.41 69.7831C227.455 69.7831 227.946 69.9998 227.851 71.1498C227.773 72.3467 227.773 73.5473 227.851 74.7442C227.901 75.6498 227.566 75.9498 226.656 75.9331C223.903 75.9109 221.155 75.9387 218.419 75.9387Z" fill="#E8E8E8"/>
  </g>
  <path d="M69.1781 80.3223C67.458 78.8389 66.1232 76.9889 64.621 75.3223C61.689 72.0667 58.8463 68.7278 55.9646 65.4223C54.6299 63.8945 53.2728 62.3834 51.9436 60.85C51.6756 60.5445 51.2511 60.1889 51.3851 59.7945C51.5192 59.4 52.1279 59.5667 52.5021 59.5667C58.7737 59.5667 65.0454 59.5667 71.3115 59.5667C71.278 64.5667 71.6968 69.6111 71.0657 74.6056C70.8382 76.62 70.1956 78.566 69.1781 80.3223Z" fill="#D4D4D3"/>
  <g filter="url(#filter11_d_134_2)">
  <path d="M218.603 45.3442C221.2 45.3442 223.797 45.3831 226.388 45.3442C227.421 45.3442 227.929 45.5665 227.84 46.7109C227.776 47.9527 227.776 49.1969 227.84 50.4387C227.874 51.2331 227.539 51.4776 226.779 51.472C222.512 51.472 218.251 51.5387 213.99 51.472C210.98 51.4165 209.148 49.3998 209.187 46.5387C209.187 45.6331 209.522 45.3387 210.416 45.3553C213.136 45.372 215.872 45.3442 218.603 45.3442Z" fill="#E8E7E8"/>
  </g>
  <g filter="url(#filter12_d_134_2)">
  <path d="M63.0237 32.9386C63.0237 35.5997 60.9853 37.4886 58.1427 37.4608C55.4285 37.4608 53.3398 35.4774 53.3286 32.9552C53.3424 32.3338 53.4792 31.7213 53.7312 31.1525C53.9832 30.5838 54.3455 30.0701 54.7973 29.6407C55.2491 29.2114 55.7816 28.8749 56.3642 28.6506C56.9469 28.4262 57.5683 28.3182 58.1929 28.333C58.8168 28.3091 59.4392 28.4105 60.0229 28.6309C60.6066 28.8514 61.1398 29.1865 61.5906 29.6162C62.0413 30.046 62.4005 30.5616 62.6468 31.1324C62.893 31.7032 63.0212 32.3175 63.0237 32.9386Z" fill="#E7E7E7"/>
  </g>
  <g filter="url(#filter13_d_134_2)">
  <path d="M66.8491 34.0832C66.5688 34.6493 66.4768 35.2895 66.5866 35.911C66.6257 36.8221 66.4693 37.3499 65.33 37.361C64.1014 37.361 64.1405 36.7054 64.1517 35.8721C64.1517 33.7999 64.1852 31.7277 64.1517 29.661C64.1517 28.8443 64.3695 28.4666 65.2686 28.5499C66.3856 28.6332 67.5025 28.4388 68.5859 28.7388C70.8198 29.3388 71.5458 31.5554 70.0268 33.2388C69.5074 33.7943 69.4683 34.1832 69.9095 34.7388C70.2058 35.0933 70.4623 35.4789 70.6746 35.8888C70.898 36.311 71.5849 36.711 71.2331 37.1666C70.8813 37.6221 70.2055 37.3443 69.6694 37.2332C69.3471 37.1675 69.043 37.0332 68.7779 36.8395C68.5128 36.6458 68.293 36.3972 68.1336 36.111C67.7315 35.4943 67.3461 34.8721 66.8491 34.0832Z" fill="#E7E7E7"/>
  </g>
  <g filter="url(#filter14_d_134_2)">
  <path d="M47.2134 32.8222C47.2134 31.7111 47.2134 30.6 47.2134 29.4889C47.2134 28.7944 47.4535 28.4944 48.1851 28.5167C49.4808 28.55 50.7764 28.5667 52.0944 28.5167C53.0047 28.4833 53.0103 29 53.0271 29.6278C53.0438 30.2556 52.8986 30.7889 52.0442 30.7389C51.4466 30.6944 50.8379 30.7389 50.2403 30.7389C49.7321 30.7389 49.6483 31.0667 49.6818 31.4833C49.7153 31.9 49.8494 32.0889 50.2403 32.0944C50.6312 32.1 50.9831 32.1333 51.3572 32.0944C52.0833 32.0389 52.4742 32.2278 52.4742 33.0667C52.4742 33.9056 52.0888 34.1778 51.3572 34.0278C49.7321 33.7389 49.4975 34.6167 49.6371 35.9167C49.7209 36.6833 49.7209 37.35 48.5537 37.3444C47.487 37.3444 47.1799 36.9389 47.2357 35.95C47.2916 34.9611 47.2134 33.8889 47.2134 32.8222Z" fill="#E6E5E7"/>
  </g>
  <path d="M58.2375 35.2111C57.9273 35.2337 57.6158 35.1935 57.3218 35.0928C57.0278 34.992 56.7575 34.833 56.5272 34.6251C56.2968 34.4173 56.1114 34.1651 55.982 33.8839C55.8526 33.6026 55.7821 33.2981 55.7746 32.9888C55.7645 32.6661 55.821 32.3447 55.9407 32.0446C56.0604 31.7444 56.2408 31.4719 56.4705 31.2438C56.7003 31.0158 56.9747 30.837 57.2767 30.7186C57.5787 30.6002 57.9019 30.5447 58.2263 30.5555C58.5382 30.5488 58.8483 30.6045 59.1382 30.7193C59.428 30.8341 59.6917 31.0057 59.9136 31.2239C60.1356 31.442 60.3111 31.7023 60.43 31.9893C60.5488 32.2763 60.6084 32.5841 60.6054 32.8944C60.6193 33.2056 60.5672 33.5163 60.4526 33.8062C60.338 34.0962 60.1634 34.3589 59.9401 34.5774C59.7168 34.7958 59.4498 34.9651 59.1565 35.0743C58.8632 35.1835 58.5501 35.2301 58.2375 35.2111Z" fill="#0D336B"/>
  <path d="M68.3069 31.4608C68.3069 32.1107 67.8154 32.283 67.3016 32.3719C66.7878 32.4607 66.57 32.1496 66.5588 31.6608C66.5477 31.1719 66.6203 30.633 67.3519 30.6885C67.8433 30.7274 68.2566 30.8719 68.3069 31.4608Z" fill="#0D336B"/>
  </g>
  <defs>
  <filter id="filter0_d_134_2" x="7.87598" y="8.54834" width="38.5457" height="59.2124" filterUnits="userSpaceOnUse" color-interpolation-filters="sRGB">
  <feFlood flood-opacity="0" result="BackgroundImageFix"/>
  <feColorMatrix in="SourceAlpha" type="matrix" values="0 0 0 0 0 0 0 0 0 0 0 0 0 0 0 0 0 0 127 0" result="hardAlpha"/>
  <feOffset dy="4"/>
  <feGaussianBlur stdDeviation="2"/>
  <feComposite in2="hardAlpha" operator="out"/>
  <feColorMatrix type="matrix" values="0 0 0 0 0 0 0 0 0 0 0 0 0 0 0 0 0 0 0.25 0"/>
  <feBlend mode="normal" in2="BackgroundImageFix" result="effect1_dropShadow_134_2"/>
  <feBlend mode="normal" in="SourceGraphic" in2="effect1_dropShadow_134_2" result="shape"/>
  </filter>
  <filter id="filter1_d_134_2" x="42.5376" y="41.4971" width="32.8916" height="59.1279" filterUnits="userSpaceOnUse" color-interpolation-filters="sRGB">
  <feFlood flood-opacity="0" result="BackgroundImageFix"/>
  <feColorMatrix in="SourceAlpha" type="matrix" values="0 0 0 0 0 0 0 0 0 0 0 0 0 0 0 0 0 0 127 0" result="hardAlpha"/>
  <feOffset dy="4"/>
  <feGaussianBlur stdDeviation="2"/>
  <feComposite in2="hardAlpha" operator="out"/>
  <feColorMatrix type="matrix" values="0 0 0 0 0 0 0 0 0 0 0 0 0 0 0 0 0 0 0.25 0"/>
  <feBlend mode="normal" in2="BackgroundImageFix" result="effect1_dropShadow_134_2"/>
  <feBlend mode="normal" in="SourceGraphic" in2="effect1_dropShadow_134_2" result="shape"/>
  </filter>
  <filter id="filter2_d_134_2" x="76.2163" y="8.3833" width="38.4226" height="39.332" filterUnits="userSpaceOnUse" color-interpolation-filters="sRGB">
  <feFlood flood-opacity="0" result="BackgroundImageFix"/>
  <feColorMatrix in="SourceAlpha" type="matrix" values="0 0 0 0 0 0 0 0 0 0 0 0 0 0 0 0 0 0 127 0" result="hardAlpha"/>
  <feOffset dy="4"/>
  <feGaussianBlur stdDeviation="2"/>
  <feComposite in2="hardAlpha" operator="out"/>
  <feColorMatrix type="matrix" values="0 0 0 0 0 0 0 0 0 0 0 0 0 0 0 0 0 0 0.25 0"/>
  <feBlend mode="normal" in2="BackgroundImageFix" result="effect1_dropShadow_134_2"/>
  <feBlend mode="normal" in="SourceGraphic" in2="effect1_dropShadow_134_2" result="shape"/>
  </filter>
  <filter id="filter3_d_134_2" x="178.643" y="45.3389" width="31.3037" height="38.646" filterUnits="userSpaceOnUse" color-interpolation-filters="sRGB">
  <feFlood flood-opacity="0" result="BackgroundImageFix"/>
  <feColorMatrix in="SourceAlpha" type="matrix" values="0 0 0 0 0 0 0 0 0 0 0 0 0 0 0 0 0 0 127 0" result="hardAlpha"/>
  <feOffset dy="4"/>
  <feGaussianBlur stdDeviation="2"/>
  <feComposite in2="hardAlpha" operator="out"/>
  <feColorMatrix type="matrix" values="0 0 0 0 0 0 0 0 0 0 0 0 0 0 0 0 0 0 0.25 0"/>
  <feBlend mode="normal" in2="BackgroundImageFix" result="effect1_dropShadow_134_2"/>
  <feBlend mode="normal" in="SourceGraphic" in2="effect1_dropShadow_134_2" result="shape"/>
  </filter>
  <filter id="filter4_d_134_2" x="98.1121" y="45.2778" width="31.981" height="39.3462" filterUnits="userSpaceOnUse" color-interpolation-filters="sRGB">
  <feFlood flood-opacity="0" result="BackgroundImageFix"/>
  <feColorMatrix in="SourceAlpha" type="matrix" values="0 0 0 0 0 0 0 0 0 0 0 0 0 0 0 0 0 0 127 0" result="hardAlpha"/>
  <feOffset dy="4"/>
  <feGaussianBlur stdDeviation="2"/>
  <feComposite in2="hardAlpha" operator="out"/>
  <feColorMatrix type="matrix" values="0 0 0 0 0 0 0 0 0 0 0 0 0 0 0 0 0 0 0.25 0"/>
  <feBlend mode="normal" in2="BackgroundImageFix" result="effect1_dropShadow_134_2"/>
  <feBlend mode="normal" in="SourceGraphic" in2="effect1_dropShadow_134_2" result="shape"/>
  </filter>
  <filter id="filter5_d_134_2" x="149.82" y="45.313" width="31.8601" height="39.3208" filterUnits="userSpaceOnUse" color-interpolation-filters="sRGB">
  <feFlood flood-opacity="0" result="BackgroundImageFix"/>
  <feColorMatrix in="SourceAlpha" type="matrix" values="0 0 0 0 0 0 0 0 0 0 0 0 0 0 0 0 0 0 127 0" result="hardAlpha"/>
  <feOffset dy="4"/>
  <feGaussianBlur stdDeviation="2"/>
  <feComposite in2="hardAlpha" operator="out"/>
  <feColorMatrix type="matrix" values="0 0 0 0 0 0 0 0 0 0 0 0 0 0 0 0 0 0 0.25 0"/>
  <feBlend mode="normal" in2="BackgroundImageFix" result="effect1_dropShadow_134_2"/>
  <feBlend mode="normal" in="SourceGraphic" in2="effect1_dropShadow_134_2" result="shape"/>
  </filter>
  <filter id="filter6_d_134_2" x="76.3083" y="45.2163" width="26.7322" height="38.8833" filterUnits="userSpaceOnUse" color-interpolation-filters="sRGB">
  <feFlood flood-opacity="0" result="BackgroundImageFix"/>
  <feColorMatrix in="SourceAlpha" type="matrix" values="0 0 0 0 0 0 0 0 0 0 0 0 0 0 0 0 0 0 127 0" result="hardAlpha"/>
  <feOffset dy="4"/>
  <feGaussianBlur stdDeviation="2"/>
  <feComposite in2="hardAlpha" operator="out"/>
  <feColorMatrix type="matrix" values="0 0 0 0 0 0 0 0 0 0 0 0 0 0 0 0 0 0 0.25 0"/>
  <feBlend mode="normal" in2="BackgroundImageFix" result="effect1_dropShadow_134_2"/>
  <feBlend mode="normal" in="SourceGraphic" in2="effect1_dropShadow_134_2" result="shape"/>
  </filter>
  <filter id="filter7_d_134_2" x="42.6687" y="8.37402" width="32.7266" height="24.2979" filterUnits="userSpaceOnUse" color-interpolation-filters="sRGB">
  <feFlood flood-opacity="0" result="BackgroundImageFix"/>
  <feColorMatrix in="SourceAlpha" type="matrix" values="0 0 0 0 0 0 0 0 0 0 0 0 0 0 0 0 0 0 127 0" result="hardAlpha"/>
  <feOffset dy="4"/>
  <feGaussianBlur stdDeviation="2"/>
  <feComposite in2="hardAlpha" operator="out"/>
  <feColorMatrix type="matrix" values="0 0 0 0 0 0 0 0 0 0 0 0 0 0 0 0 0 0 0.25 0"/>
  <feBlend mode="normal" in2="BackgroundImageFix" result="effect1_dropShadow_134_2"/>
  <feBlend mode="normal" in="SourceGraphic" in2="effect1_dropShadow_134_2" result="shape"/>
  </filter>
  <filter id="filter8_d_134_2" x="109.892" y="9.06348" width="32.708" height="38.6528" filterUnits="userSpaceOnUse" color-interpolation-filters="sRGB">
  <feFlood flood-opacity="0" result="BackgroundImageFix"/>
  <feColorMatrix in="SourceAlpha" type="matrix" values="0 0 0 0 0 0 0 0 0 0 0 0 0 0 0 0 0 0 127 0" result="hardAlpha"/>
  <feOffset dy="4"/>
  <feGaussianBlur stdDeviation="2"/>
  <feComposite in2="hardAlpha" operator="out"/>
  <feColorMatrix type="matrix" values="0 0 0 0 0 0 0 0 0 0 0 0 0 0 0 0 0 0 0.25 0"/>
  <feBlend mode="normal" in2="BackgroundImageFix" result="effect1_dropShadow_134_2"/>
  <feBlend mode="normal" in="SourceGraphic" in2="effect1_dropShadow_134_2" result="shape"/>
  </filter>
  <filter id="filter9_d_134_2" x="125.122" y="45.3442" width="29.4324" height="38.6064" filterUnits="userSpaceOnUse" color-interpolation-filters="sRGB">
  <feFlood flood-opacity="0" result="BackgroundImageFix"/>
  <feColorMatrix in="SourceAlpha" type="matrix" values="0 0 0 0 0 0 0 0 0 0 0 0 0 0 0 0 0 0 127 0" result="hardAlpha"/>
  <feOffset dy="4"/>
  <feGaussianBlur stdDeviation="2"/>
  <feComposite in2="hardAlpha" operator="out"/>
  <feColorMatrix type="matrix" values="0 0 0 0 0 0 0 0 0 0 0 0 0 0 0 0 0 0 0.25 0"/>
  <feBlend mode="normal" in2="BackgroundImageFix" result="effect1_dropShadow_134_2"/>
  <feBlend mode="normal" in="SourceGraphic" in2="effect1_dropShadow_134_2" result="shape"/>
  </filter>
  <filter id="filter10_d_134_2" x="205.181" y="57.333" width="26.6814" height="26.6055" filterUnits="userSpaceOnUse" color-interpolation-filters="sRGB">
  <feFlood flood-opacity="0" result="BackgroundImageFix"/>
  <feColorMatrix in="SourceAlpha" type="matrix" values="0 0 0 0 0 0 0 0 0 0 0 0 0 0 0 0 0 0 127 0" result="hardAlpha"/>
  <feOffset dy="4"/>
  <feGaussianBlur stdDeviation="2"/>
  <feComposite in2="hardAlpha" operator="out"/>
  <feColorMatrix type="matrix" values="0 0 0 0 0 0 0 0 0 0 0 0 0 0 0 0 0 0 0.25 0"/>
  <feBlend mode="normal" in2="BackgroundImageFix" result="effect1_dropShadow_134_2"/>
  <feBlend mode="normal" in="SourceGraphic" in2="effect1_dropShadow_134_2" result="shape"/>
  </filter>
  <filter id="filter11_d_134_2" x="205.187" y="45.3442" width="26.6636" height="14.1572" filterUnits="userSpaceOnUse" color-interpolation-filters="sRGB">
  <feFlood flood-opacity="0" result="BackgroundImageFix"/>
  <feColorMatrix in="SourceAlpha" type="matrix" values="0 0 0 0 0 0 0 0 0 0 0 0 0 0 0 0 0 0 127 0" result="hardAlpha"/>
  <feOffset dy="4"/>
  <feGaussianBlur stdDeviation="2"/>
  <feComposite in2="hardAlpha" operator="out"/>
  <feColorMatrix type="matrix" values="0 0 0 0 0 0 0 0 0 0 0 0 0 0 0 0 0 0 0.25 0"/>
  <feBlend mode="normal" in2="BackgroundImageFix" result="effect1_dropShadow_134_2"/>
  <feBlend mode="normal" in="SourceGraphic" in2="effect1_dropShadow_134_2" result="shape"/>
  </filter>
  <filter id="filter12_d_134_2" x="49.3286" y="28.3296" width="17.6951" height="17.1313" filterUnits="userSpaceOnUse" color-interpolation-filters="sRGB">
  <feFlood flood-opacity="0" result="BackgroundImageFix"/>
  <feColorMatrix in="SourceAlpha" type="matrix" values="0 0 0 0 0 0 0 0 0 0 0 0 0 0 0 0 0 0 127 0" result="hardAlpha"/>
  <feOffset dy="4"/>
  <feGaussianBlur stdDeviation="2"/>
  <feComposite in2="hardAlpha" operator="out"/>
  <feColorMatrix type="matrix" values="0 0 0 0 0 0 0 0 0 0 0 0 0 0 0 0 0 0 0.25 0"/>
  <feBlend mode="normal" in2="BackgroundImageFix" result="effect1_dropShadow_134_2"/>
  <feBlend mode="normal" in="SourceGraphic" in2="effect1_dropShadow_134_2" result="shape"/>
  </filter>
  <filter id="filter13_d_134_2" x="60.1487" y="28.5386" width="15.1829" height="16.8804" filterUnits="userSpaceOnUse" color-interpolation-filters="sRGB">
  <feFlood flood-opacity="0" result="BackgroundImageFix"/>
  <feColorMatrix in="SourceAlpha" type="matrix" values="0 0 0 0 0 0 0 0 0 0 0 0 0 0 0 0 0 0 127 0" result="hardAlpha"/>
  <feOffset dy="4"/>
  <feGaussianBlur stdDeviation="2"/>
  <feComposite in2="hardAlpha" operator="out"/>
  <feColorMatrix type="matrix" values="0 0 0 0 0 0 0 0 0 0 0 0 0 0 0 0 0 0 0.25 0"/>
  <feBlend mode="normal" in2="BackgroundImageFix" result="effect1_dropShadow_134_2"/>
  <feBlend mode="normal" in="SourceGraphic" in2="effect1_dropShadow_134_2" result="shape"/>
  </filter>
  <filter id="filter14_d_134_2" x="43.2134" y="28.5151" width="13.8149" height="16.8291" filterUnits="userSpaceOnUse" color-interpolation-filters="sRGB">
  <feFlood flood-opacity="0" result="BackgroundImageFix"/>
  <feColorMatrix in="SourceAlpha" type="matrix" values="0 0 0 0 0 0 0 0 0 0 0 0 0 0 0 0 0 0 127 0" result="hardAlpha"/>
  <feOffset dy="4"/>
  <feGaussianBlur stdDeviation="2"/>
  <feComposite in2="hardAlpha" operator="out"/>
  <feColorMatrix type="matrix" values="0 0 0 0 0 0 0 0 0 0 0 0 0 0 0 0 0 0 0.25 0"/>
  <feBlend mode="normal" in2="BackgroundImageFix" result="effect1_dropShadow_134_2"/>
  <feBlend mode="normal" in="SourceGraphic" in2="effect1_dropShadow_134_2" result="shape"/>
  </filter>
  <clipPath id="clip0_134_2">
  <rect width="234" height="95" fill="white"/>
  </clipPath>
  </defs>
  </svg>
  